<svg xmlns="http://www.w3.org/2000/svg" viewBox="0 0 623.94 902.49"><defs><style>.cls-1{fill:#61dd00;}.cls-2{fill:#33a000;}.cls-3{fill:#ed3a83;}.cls-4{fill:#d80049;}</style></defs><g id="Camada_2" data-name="Camada 2"><g id="Camada_2-2" data-name="Camada 2"><polygon class="cls-1" points="296.4 0 296.4 255.01 42.23 0.83 296.4 0"/><polygon class="cls-2" points="316.88 255.01 316.88 139.09 432.41 139.47 316.88 255.01"/><circle class="cls-3" cx="317.93" cy="591.43" r="243.69"/><path class="cls-4" d="M13.84,498.4,224.9,287.34A318.63,318.63,0,0,0,13.84,498.4Z"/><path class="cls-4" d="M408.2,286.52,623.94,504.9A318.58,318.58,0,0,0,408.2,286.52Z"/><path class="cls-4" d="M620.43,689.49,416,893.92A318.66,318.66,0,0,0,620.43,689.49Z"/><path class="cls-4" d="M225.18,895.6,12.75,680.79A318.61,318.61,0,0,0,225.18,895.6Z"/><path class="cls-4" d="M306.89,286.44,76.69,516.64,310.2,750.14l162.3-162.3L311.86,427.2l-97,97L304,613.39l43.91-43.92-45.24-45.24,9.22-9.22,72.82,72.83L310.2,662.33,164.51,516.64,306.89,374.26l220.2,220.21-220.2,220.2-298-298A318.86,318.86,0,0,0,0,591.43c0,1.41,0,2.81.05,4.22L306.89,902.49l308-308Z"/></g></g></svg>