<?xml version="1.0" encoding="utf-8"?>
<!-- Generator: Adobe Illustrator 24.1.2, SVG Export Plug-In . SVG Version: 6.00 Build 0)  -->
<svg version="1.1" id="Camada_1" xmlns="http://www.w3.org/2000/svg" xmlns:xlink="http://www.w3.org/1999/xlink" x="0px" y="0px"
	 viewBox="0 0 623.9 623.9" style="enable-background:new 0 0 623.9 623.9;" xml:space="preserve">
<style type="text/css">
	.st0{fill:#FFFFFF;}
	.st1{fill:#61DD00;}
	.st2{fill:#2E2626;}
	.st3{fill:#A02A7D;}
	.st4{opacity:0.5;fill:#FFFFFF;}
	.st5{fill:#523255;}
	.st6{fill:#70446D;}
	.st7{fill:#FFFEFD;}
	.st8{fill:#D80049;}
	.st9{opacity:0.2;}
</style>
<path class="st0" d="M622.3,256.6c-0.9-9.8-5.8-18.9-13.4-25c-6.4-5.1-14.4-7.9-22.6-7.9c-1.6,0-3.2,0.1-4.7,0.3
	c-4,0.5-8.2,1.1-12.5,1.6c0.8-3.7,1.2-7.4,1.2-11.3c0-24.9-17.5-46.5-41.5-52c-8.4-19.4-27.5-32.2-49-32.2c-11.2,0-22,3.5-30.9,9.9
	c-1-1.1-2-2.1-3.1-3.1c-7.1-6.8-15.1-12.2-23.8-16.2c-8.7-3.9-18-6.3-27.8-7.2c-1-0.1-2-0.1-3-0.1c-10.7,0-20.7,4.8-27.4,13.1
	c-3.8,4.7-6.3,10.2-7.3,16c-8.2-0.4-18-1.6-27.6-2.8c-13.7-1.7-27.9-3.4-40.8-3.4c-12.5,0-22.4,1.6-31,5c-2.5-3.1-5.2-6.2-8.1-9.3
	c-16.3-17.4-37.5-33-61.4-45.1c-4-2-8.5-3.1-13.1-3.1c-6,0-11.7,1.8-16.6,5.3c-8.8,6.2-13.4,16.6-12.1,27.2l0.8,6.5
	c-4.6-0.3-9.2-0.5-14-0.5c-16.7,0-35.1,2-54.5,5.8c-18.1,3.6-37.7,9-58.5,16C8.7,148.1,1,158.2,0.3,170
	c-0.7,11.8,5.8,22.7,16.5,27.8c17.8,8.5,37.6,24.9,55.6,40.4c-4.1,5.6-6.5,12.3-6.8,19.3c-1.5,28.5-0.3,53.2,3.6,75.6
	c4.8,27.5,13.6,51.2,26.8,72.6c14.6,23.5,34.6,43.8,59.6,60.1c12.7,8.4,27.1,15.9,42.6,22.4c7.7,3.2,15.9,6.3,24.4,9.1
	c0.6,10.3,5.4,19.8,13.5,26.2c8.2,6.6,19.4,11.2,50,13.9c16.6,1.5,37.5,2.3,58.9,2.3c20.6,0,40-0.7,56-2.1
	c28.3-2.5,39.6-6.4,46.3-9.6c12.1-5.7,20-17.8,20.6-31.1c21.7-7.7,41.4-17,58.5-27.8c24.5-15.4,44.7-34.3,60.1-56.1
	c15.1-21.4,25.7-46,31.6-73.1C623.6,314.7,625,286.6,622.3,256.6z"/>
<g>
	<path class="st1" d="M174.8,112.9l5.7,46c-14.3-5.1-30.2-7.5-47.6-7.5c-30.4,0-65.3,7.3-103.7,20.3
		c56.9,27,114.5,108.8,166.8,108.8c14.7,0,28.9-6.4,42.6-22.2C282.2,207.9,240.1,145.9,174.8,112.9z"/>
	<path class="st2" d="M275.9,196.5c-2.1-10.5-6.1-21.1-11.9-31.4c-5.4-9.5-12.3-18.8-20.6-27.7c-15.7-16.7-36.1-31.8-59.2-43.4
		c-3-1.5-6.3-2.3-9.5-2.3c-4.3,0-8.5,1.3-12.2,3.9c-6.4,4.5-9.8,12.2-8.8,19.9l2,16.1c-7.3-0.9-15-1.4-22.9-1.4
		c-16.2,0-34,1.9-53,5.7c-17.7,3.5-37.1,8.8-57.5,15.7c-8.2,2.8-13.8,10.2-14.3,18.8c-0.5,8.6,4.3,16.6,12,20.3
		c20.9,9.9,43.6,29.6,65.5,48.6c16.8,14.5,34.1,29.5,51.4,41c9.9,6.6,19,11.4,27.9,14.9c10.7,4.2,21.2,6.3,31.1,6.3
		c21.9,0,41.6-9.9,58.6-29.5C273.9,249.8,281.3,223.7,275.9,196.5z M196,280.5c-52.3,0-109.9-81.7-166.8-108.8
		c38.4-13,73.3-20.3,103.7-20.3c17.4,0,33.3,2.4,47.6,7.5l-5.7-46c65.3,33.1,107.5,95,63.9,145.4C224.9,274.1,210.7,280.5,196,280.5
		z"/>
	<path class="st2" d="M203.5,140.8c3.8,3.9,7.3,8.1,10.7,12.4c3.4,4.3,6.6,8.9,9.5,13.5c3,4.7,5.8,9.5,8.3,14.5
		c2.5,5,4.8,10.2,6.8,15.5c2,5.3,3.7,10.8,5,16.5c0.3,1.4,0.7,2.8,0.9,4.3l0.7,4.3c0.1,0.7,0.2,1.5,0.3,2.2l0.3,2.2l0.3,2.2l0.1,2.2
		c0.5,5.9,0.3,12-0.3,18l-0.5,4.5c-0.2,1.5-0.5,3-0.8,4.5l-0.4,2.3c-0.2,0.7-0.4,1.5-0.6,2.2l-1.1,4.5c-1.7,6.6-8.5,10.7-15.1,9
		c-6.6-1.7-10.7-8.5-9-15.1c0.2-0.7,0.4-1.4,0.7-2.1l0.2-0.5l1.5-3.2l0.8-1.6l0.6-1.7c0.4-1.1,0.9-2.2,1.3-3.3l1.1-3.4
		c1.3-4.6,2.4-9.4,2.9-14.3l0.2-1.8l0.1-1.9l0.1-1.9c0-0.6,0.1-1.2,0.1-1.9l0.1-3.8c0-1.3-0.1-2.5-0.1-3.8
		c-0.2-5.1-0.7-10.2-1.6-15.3c-0.9-5.1-2.1-10.2-3.6-15.3c-1.5-5.1-3.3-10.1-5.3-15c-2-5-4.2-9.8-6.7-14.6c-2.5-4.8-5.1-9.5-8.1-14
		l0,0c-0.1-0.1,0-0.3,0.1-0.3C203.3,140.7,203.4,140.7,203.5,140.8z"/>
	<path class="st2" d="M100.7,169.7c5.5-0.4,10.9-0.4,16.4-0.1c5.5,0.2,11,0.7,16.5,1.5c5.5,0.7,11,1.7,16.4,3
		c5.5,1.3,10.9,2.9,16.2,4.8c5.4,1.9,10.6,4.2,15.8,6.9c1.3,0.7,2.6,1.3,3.8,2.1l3.8,2.2c0.6,0.4,1.2,0.8,1.9,1.2l1.8,1.2l1.8,1.2
		l1.8,1.3c4.8,3.5,9.3,7.5,13.6,11.8l3.1,3.3c1,1.2,1.9,2.4,2.9,3.5l1.5,1.8c0.5,0.6,0.9,1.2,1.3,1.9l2.7,3.8
		c4,5.6,2.7,13.3-2.9,17.3c-5.6,4-13.3,2.7-17.3-2.9c-0.4-0.6-0.8-1.3-1.1-1.9l-0.2-0.5l-1.5-3.2l-0.7-1.6l-0.9-1.6
		c-0.6-1-1.1-2.1-1.7-3.1l-1.9-3c-2.7-4-5.6-7.9-9-11.5l-1.3-1.4l-1.3-1.3l-1.3-1.3c-0.4-0.4-0.9-0.9-1.4-1.3l-2.8-2.5
		c-1-0.8-2-1.6-3-2.4c-4-3.1-8.2-6.1-12.7-8.6c-4.5-2.6-9.2-5-14-7.2c-4.8-2.1-9.8-4-14.9-5.7c-5.1-1.7-10.2-3.1-15.5-4.4
		c-5.3-1.2-10.6-2.2-16-2.9l0,0c-0.1,0-0.2-0.1-0.2-0.3C100.5,169.8,100.5,169.7,100.7,169.7z"/>
	<path class="st3" d="M449.4,278.7c-0.2,0-0.3,0-0.5,0l-293.4-10.9c-3.8-0.1-7.3-1.8-9.8-4.6c-2.5-2.8-3.7-6.5-3.4-10.3
		c1.6-18,7.8-31.4,18.4-40c9.4-7.6,21.8-11.2,38.1-11.2c16.4,0,35.6,3.7,56.1,7.8c-0.2-0.3-0.4-0.5-0.7-0.8
		c-0.5-0.6-0.9-1.1-1.3-1.7c-0.2-0.3-0.3-0.5-0.5-0.7c0,0-0.3-0.4-0.3-0.4c-0.1-0.2-0.3-0.4-0.4-0.6c-0.1-0.2-0.2-0.3-0.3-0.5
		c0,0,0,0,0-0.1c-0.2-0.3-0.4-0.7-0.6-1c-3.3-6-4.6-12.6-3.8-19.5c1.1-10,7-17.8,16.5-22.1c6.3-2.8,14.1-4.1,24.6-4.1
		c11.6,0,25.1,1.7,38.1,3.3c12.6,1.5,25.6,3.1,36,3.1c8.6,0,13-1.1,15.1-2c1.5-0.7,1.7-1,1.8-1.4c0-0.1,0-0.1,0-0.2l0-0.1
		c0-0.1,0-0.2,0-0.2c0,0,0-0.2,0-0.2c0,0,0-0.3,0-0.4c0-0.1,0-0.1,0-0.2c0-0.1,0-0.2,0-0.3c0-0.5-0.1-1-0.1-1.6c0,0,0-0.1,0-0.1
		l-0.1-0.5c-0.1-0.3-0.1-0.7-0.2-1l0,0c0-0.2-0.1-0.3-0.1-0.5c0,0,0,0,0-0.1c0-0.1,0-0.2-0.1-0.3c0,0-0.2-0.6-0.2-0.7
		c-0.1-0.6-0.3-1.1-0.5-1.7c-1.3-4.4-0.4-9.1,2.4-12.6c2.6-3.2,6.5-5.1,10.7-5.1c0.4,0,0.8,0,1.2,0c14.8,1.3,27.7,7.1,38.6,17.5
		c10.2,9.8,18.3,23.5,24,40.7c0,0,0,0,0,0c0.1,0.3,0.2,0.5,0.2,0.8c0.1,0.5,0.3,1,0.4,1.4c0.1,0.5,0.3,0.9,0.4,1.4
		c0.3,1,0.5,2.1,0.8,3.2c0.1,0.4,0.2,0.9,0.3,1.3c0.2,0.7,0.3,1.4,0.5,2.1c0.1,0.5,0.2,1,0.3,1.6c0,0.2,0.1,0.3,0.1,0.5
		c0,0.2,0.3,1.4,0.3,1.5c0,0,0.1,0.8,0.2,1c0.1,0.4,0.2,0.9,0.3,1.3c0.1,0.6,0.2,1.3,0.4,2c0.4,2.2,0.7,4.5,1,6.6l0.2,1.2
		c0.1,0.4,0.1,0.7,0.1,1.1c0.1,0.9,0.2,1.9,0.4,2.9c0,0.1,0,0.3,0,0.3c0,0.3,0.1,0.6,0.1,0.9c0,0,0,0.4,0,0.4
		c0.1,1.2,0.3,2.5,0.4,3.7c0.1,0.7,0.1,1.5,0.2,2.2c0,0.1,0,0.2,0,0.2c0.1,0.7,0.1,1.4,0.2,2.1c0.1,0.7,0.1,1.5,0.2,2.3
		c0,0.4,0.1,0.8,0.1,1.2c0.1,0.9,0.1,1.8,0.2,2.7c0.1,2,0.3,4,0.4,6.1c0,0,0,0.7,0,0.7c0,0.4,0,0.9,0.1,1.3c0,0.5,0,1,0.1,1.4
		c0,0.5,0,1,0.1,1.5c0,1.3,0.1,2.6,0.1,3.9c0,0,0,1.5,0,1.5c0,1.2,0.1,2.5,0.1,3.7c0,0.5,0,1,0,1.4l0,0.1c0,1.4,0,2.8,0,4.2
		c0,3.7-1.5,7.3-4.2,9.9C456.4,277.3,453,278.7,449.4,278.7z"/>
	<path class="st4" d="M449.4,278.7c-0.2,0-0.3,0-0.5,0l-293.4-10.9c-3.8-0.1-7.3-1.8-9.8-4.6c-2.5-2.8-3.7-6.5-3.4-10.3
		c1.6-18,7.8-31.4,18.4-40c9.4-7.6,21.8-11.2,38.1-11.2c16.4,0,35.6,3.7,56.1,7.8c-0.2-0.3-0.4-0.5-0.7-0.8
		c-0.5-0.6-0.9-1.1-1.3-1.7c-0.2-0.3-0.3-0.5-0.5-0.7c0,0-0.3-0.4-0.3-0.4c-0.1-0.2-0.3-0.4-0.4-0.6c-0.1-0.2-0.2-0.3-0.3-0.5
		c0,0,0,0,0-0.1c-0.2-0.3-0.4-0.7-0.6-1c-3.3-6-4.6-12.6-3.8-19.5c1.1-10,7-17.8,16.5-22.1c6.3-2.8,14.1-4.1,24.6-4.1
		c11.6,0,25.1,1.7,38.1,3.3c12.6,1.5,25.6,3.1,36,3.1c8.6,0,13-1.1,15.1-2c1.5-0.7,1.7-1,1.8-1.4c0-0.1,0-0.1,0-0.2l0-0.1
		c0-0.1,0-0.2,0-0.2c0,0,0-0.2,0-0.2c0,0,0-0.3,0-0.4c0-0.1,0-0.1,0-0.2c0-0.1,0-0.2,0-0.3c0-0.5-0.1-1-0.1-1.6c0,0,0-0.1,0-0.1
		l-0.1-0.5c-0.1-0.3-0.1-0.7-0.2-1l0,0c0-0.2-0.1-0.3-0.1-0.5c0,0,0,0,0-0.1c0-0.1,0-0.2-0.1-0.3c0,0-0.2-0.6-0.2-0.7
		c-0.1-0.6-0.3-1.1-0.5-1.7c-1.3-4.4-0.4-9.1,2.4-12.6c2.6-3.2,6.5-5.1,10.7-5.1c0.4,0,0.8,0,1.2,0c14.8,1.3,27.7,7.1,38.6,17.5
		c10.2,9.8,18.3,23.5,24,40.7c0,0,0,0,0,0c0.1,0.3,0.2,0.5,0.2,0.8c0.1,0.5,0.3,1,0.4,1.4c0.1,0.5,0.3,0.9,0.4,1.4
		c0.3,1,0.5,2.1,0.8,3.2c0.1,0.4,0.2,0.9,0.3,1.3c0.2,0.7,0.3,1.4,0.5,2.1c0.1,0.5,0.2,1,0.3,1.6c0,0.2,0.1,0.3,0.1,0.5
		c0,0.2,0.3,1.4,0.3,1.5c0,0,0.1,0.8,0.2,1c0.1,0.4,0.2,0.9,0.3,1.3c0.1,0.6,0.2,1.3,0.4,2c0.4,2.2,0.7,4.5,1,6.6l0.2,1.2
		c0.1,0.4,0.1,0.7,0.1,1.1c0.1,0.9,0.2,1.9,0.4,2.9c0,0.1,0,0.3,0,0.3c0,0.3,0.1,0.6,0.1,0.9c0,0,0,0.4,0,0.4
		c0.1,1.2,0.3,2.5,0.4,3.7c0.1,0.7,0.1,1.5,0.2,2.2c0,0.1,0,0.2,0,0.2c0.1,0.7,0.1,1.4,0.2,2.1c0.1,0.7,0.1,1.5,0.2,2.3
		c0,0.4,0.1,0.8,0.1,1.2c0.1,0.9,0.1,1.8,0.2,2.7c0.1,2,0.3,4,0.4,6.1c0,0,0,0.7,0,0.7c0,0.4,0,0.9,0.1,1.3c0,0.5,0,1,0.1,1.4
		c0,0.5,0,1,0.1,1.5c0,1.3,0.1,2.6,0.1,3.9c0,0,0,1.5,0,1.5c0,1.2,0.1,2.5,0.1,3.7c0,0.5,0,1,0,1.4l0,0.1c0,1.4,0,2.8,0,4.2
		c0,3.7-1.5,7.3-4.2,9.9C456.4,277.3,453,278.7,449.4,278.7z"/>
	<path class="st3" d="M449.4,265l-279.3-12.5c19.2-64.9,118.9,13,230.7-27.9c-19.7,3.5-121.7,4-137.8-27.7
		c-25.2-56.5,156.3,38.5,128.3-48.3c23.1,2,40.7,18.3,50.8,49C446.9,215.3,449.4,237.7,449.4,265z"/>
	<path class="st2" d="M391.3,148.6c23.1,2,40.7,18.3,50.8,48.9c0,0,0,0,0,0c0.1,0.4,0.2,0.9,0.4,1.3c0.1,0.4,0.2,0.8,0.3,1.2
		c0.2,1,0.5,2,0.7,3c0.1,0.4,0.2,0.8,0.3,1.2c0.1,0.6,0.3,1.3,0.4,2c0.1,0.5,0.2,1,0.3,1.6c0,0.1,0.1,0.3,0.1,0.4
		c0.1,0.4,0.2,0.8,0.3,1.3c0.1,0.3,0.1,0.7,0.2,1c0.1,0.4,0.2,0.8,0.2,1.3c0.1,0.6,0.2,1.3,0.3,1.9c0.3,2,0.7,4.1,1,6.2
		c0.1,0.4,0.1,0.8,0.2,1.1c0,0.3,0.1,0.6,0.1,0.9c0.1,0.9,0.2,1.9,0.4,2.8c0,0.1,0,0.2,0,0.3c0.1,0.4,0.1,0.8,0.1,1.2
		c0.1,1.2,0.3,2.4,0.4,3.6c0.1,0.7,0.1,1.4,0.2,2.1c0,0,0,0,0,0.1c0.1,0.7,0.1,1.4,0.2,2.2c0.1,0.7,0.1,1.5,0.2,2.2
		c0,0.3,0.1,0.7,0.1,1c0.1,0.9,0.1,1.8,0.2,2.7c0.1,1.9,0.2,3.9,0.3,5.9c0,0.6,0.1,1.2,0.1,1.9c0,0.5,0,0.9,0.1,1.4
		c0,0.5,0,1,0.1,1.5c0,1.3,0.1,2.5,0.1,3.8c0,0.5,0,1,0,1.5c0,1.2,0.1,2.4,0.1,3.6c0,0.5,0,1,0,1.5c0,1.3,0,2.7,0,4l-266.1-9.9
		l-27.3-1c2.6-29.8,18.8-38.8,42.9-38.8c34.4,0,85.1,18.2,136,19.8c0,0,0,0,0,0c0.6,0,1.2,0,1.8,0c0.3,0,0.7,0,1,0
		c0.4,0,0.9,0,1.3,0c0.4,0,0.8,0,1.1,0c0.6,0,1.3,0,1.9,0c2,0,3.9,0,5.9-0.1c0.6,0,1.3,0,1.9-0.1c0.5,0,1,0,1.5-0.1
		c0.6,0,1.2-0.1,1.8-0.1c0.6,0,1.2-0.1,1.9-0.1c0.6,0,1.2-0.1,1.8-0.1c0.1,0,0.2,0,0.3,0c0.5,0,0.9-0.1,1.4-0.1c0.2,0,0.5,0,0.7-0.1
		c0.4,0,0.8-0.1,1.2-0.1c0.2,0,0.4,0,0.5,0c0.4,0,0.9-0.1,1.3-0.1c0.3,0,0.6-0.1,0.9-0.1c0.5-0.1,1-0.1,1.6-0.2
		c0.4-0.1,0.9-0.1,1.3-0.2c0.7-0.1,1.5-0.2,2.2-0.3c0.5-0.1,1.1-0.2,1.6-0.2c0.5-0.1,1.1-0.2,1.6-0.3c0.4-0.1,0.8-0.1,1.2-0.2
		c0.3-0.1,0.6-0.1,0.9-0.2c3.1-0.6,6.1-1.2,9.2-2c0.4-0.1,0.8-0.2,1.3-0.3c0.2-0.1,0.5-0.1,0.7-0.2c0.5-0.1,1.1-0.3,1.6-0.4
		c0.5-0.1,1.1-0.3,1.6-0.5c0.2,0,0.3-0.1,0.5-0.1c0.3-0.1,0.7-0.2,1-0.3c0.3-0.1,0.6-0.2,0.9-0.3c0.4-0.1,0.8-0.3,1.2-0.4
		c0.5-0.2,1-0.3,1.5-0.5c0.4-0.1,0.9-0.3,1.3-0.4c0.5-0.2,0.9-0.3,1.4-0.5c0.4-0.2,0.9-0.3,1.3-0.5c0.5-0.2,1-0.4,1.6-0.6
		c0.3-0.1,0.6-0.2,0.9-0.4c0.4-0.1,0.8-0.3,1.1-0.5c0,0,0,0,0,0c-0.1,0-0.3,0.1-0.5,0.1c-0.2,0-0.3,0.1-0.5,0.1c0,0-0.1,0-0.1,0
		c-0.2,0-0.5,0.1-0.8,0.1c-0.7,0.1-1.4,0.2-2.1,0.3c-0.3,0-0.7,0.1-1.1,0.1c-2.1,0.2-4.5,0.4-7.2,0.5c-0.4,0-0.9,0-1.3,0.1
		c-0.4,0-0.9,0-1.3,0.1c-0.4,0-0.9,0-1.3,0c-2.1,0.1-4.4,0.1-6.7,0.1c-0.5,0-1,0-1.6,0c-0.6,0-1.2,0-1.8,0c-1.9,0-3.9,0-5.9-0.1
		c-0.6,0-1.2,0-1.8,0c-0.5,0-0.9,0-1.4,0c-0.6,0-1.2,0-1.8-0.1c-0.8,0-1.7,0-2.5-0.1c-0.5,0-0.9,0-1.4-0.1c-0.6,0-1.3-0.1-1.9-0.1
		c-0.4,0-0.7,0-1.1-0.1c-0.8,0-1.5-0.1-2.3-0.1c-0.4,0-0.8,0-1.2-0.1c-0.8,0-1.5-0.1-2.3-0.1c-1.2-0.1-2.3-0.1-3.5-0.2
		c-0.7,0-1.4-0.1-2.1-0.2c-0.1,0-0.2,0-0.3,0c-0.6,0-1.2-0.1-1.9-0.1c-0.6,0-1.1-0.1-1.7-0.1c-0.4,0-0.8-0.1-1.2-0.1
		c-0.5,0-0.9-0.1-1.4-0.1c-1.1-0.1-2.2-0.2-3.4-0.3c0,0,0,0,0,0c-0.4,0-0.8-0.1-1.2-0.1c-2.1-0.2-4.2-0.5-6.3-0.7
		c-1.1-0.1-2.1-0.3-3.2-0.4c-0.1,0-0.2,0-0.3,0c-0.3,0-0.6-0.1-0.9-0.1c-1.3-0.2-2.7-0.4-4-0.6c-0.6-0.1-1.1-0.2-1.7-0.3
		c-2.9-0.5-5.7-1-8.4-1.5c-0.7-0.1-1.4-0.3-2.1-0.4c-0.7-0.2-1.5-0.3-2.2-0.5c-0.7-0.2-1.5-0.3-2.2-0.5c-0.4-0.1-0.7-0.2-1.1-0.3
		c-0.8-0.2-1.5-0.4-2.2-0.6c-0.6-0.2-1.3-0.3-1.9-0.5c-0.1,0-0.1,0-0.1,0c-0.7-0.2-1.4-0.4-2.1-0.6c-0.4-0.1-0.7-0.2-1-0.3
		c-0.7-0.2-1.4-0.4-2-0.6c-1-0.3-2-0.6-3-1c-0.3-0.1-0.6-0.2-1-0.3c-3.4-1.2-6.6-2.6-9.5-4c-0.2-0.1-0.4-0.2-0.6-0.3
		c-0.3-0.2-0.6-0.3-0.9-0.5c-0.3-0.2-0.6-0.3-0.9-0.5c-0.1,0-0.2-0.1-0.3-0.1c-0.2-0.1-0.3-0.2-0.5-0.3c-1.2-0.7-2.4-1.4-3.5-2.2
		c-0.2-0.1-0.4-0.3-0.6-0.4c-0.6-0.4-1.2-0.9-1.7-1.3c-0.2-0.1-0.4-0.3-0.5-0.5c-0.2-0.1-0.4-0.3-0.5-0.5c-0.2-0.1-0.4-0.3-0.5-0.5
		c-0.3-0.3-0.7-0.6-1-0.9c-0.2-0.2-0.3-0.3-0.5-0.5c-0.2-0.2-0.3-0.3-0.5-0.5c-0.1-0.2-0.3-0.3-0.4-0.5c-0.3-0.3-0.6-0.7-0.8-1
		c-0.3-0.3-0.5-0.7-0.8-1c-0.1-0.2-0.2-0.3-0.4-0.5c-0.1-0.2-0.2-0.3-0.3-0.5c0,0,0,0,0-0.1c-0.1-0.2-0.2-0.3-0.3-0.5c0,0,0,0,0,0
		c-0.1-0.2-0.2-0.4-0.3-0.5c-1.9-3.4-2.7-7.2-2.2-11.4c1.2-10.8,12.3-14,27.5-14c21.6,0,51.8,6.4,74.2,6.4
		c16.2,0,28.3-3.3,30.4-14.9c0,0,0-0.1,0-0.1c0-0.2,0.1-0.5,0.1-0.7c0-0.1,0-0.2,0-0.3c0-0.2,0-0.3,0.1-0.5c0-0.2,0-0.4,0-0.6
		c0-0.2,0-0.4,0-0.6c0-0.2,0-0.5,0-0.7c0-0.2,0-0.4,0-0.7c0-1-0.1-2-0.2-3c0-0.2-0.1-0.4-0.1-0.6v0c0-0.2-0.1-0.3-0.1-0.5
		c-0.1-0.5-0.2-1-0.3-1.5c-0.1-0.3-0.1-0.5-0.2-0.8c-0.1-0.2-0.1-0.5-0.2-0.7c-0.1-0.2-0.1-0.4-0.2-0.7
		C391.7,150.2,391.5,149.4,391.3,148.6 M391.3,121.2c-8.3,0-16.1,3.7-21.3,10.2c-4.4,5.4-6.5,12.3-6,19.1c-0.5,0-1,0-1.5,0
		c-9.6,0-22.2-1.5-34.3-3c-13.5-1.7-27.4-3.4-39.8-3.4c-12.5,0-22,1.7-30.2,5.3c-14,6.2-22.9,18.3-24.5,33.1c-0.3,3-0.4,5.9-0.2,8.8
		c-12.1-2.1-23.7-3.5-34.4-3.5c-19.5,0-34.8,4.7-46.7,14.3c-13.6,11-21.5,27.7-23.5,49.5c-0.7,7.5,1.8,14.9,6.7,20.5
		c5,5.6,12,9,19.5,9.3l27.3,1l266.1,9.9c0.3,0,0.7,0,1,0c7.1,0,13.9-2.8,19-7.7c5.4-5.2,8.4-12.3,8.4-19.8c0-1.4,0-2.8,0-4.3
		c0-0.5,0-1.1,0-1.6c0-1.1,0-2.4-0.1-3.8c0-0.3,0-0.6,0-0.8c0-0.2,0-0.4,0-0.6c0-0.1,0-0.1,0-0.2c0-1.3-0.1-2.6-0.1-4
		c0-0.6,0-1.1-0.1-1.6c0-0.5,0-1-0.1-1.5c0-0.4,0-0.9-0.1-1.3l0-0.5c0,0,0-0.1,0-0.1c-0.1-2.1-0.2-4.3-0.4-6.3
		c-0.1-1-0.1-1.9-0.2-2.8c0-0.5-0.1-1-0.1-1.3c-0.1-0.8-0.1-1.6-0.2-2.4c-0.1-0.7-0.1-1.4-0.2-2.1c0-0.1,0-0.2,0-0.3
		c-0.1-0.8-0.1-1.5-0.2-2.3c-0.1-1.3-0.3-2.6-0.4-3.9c0-0.1,0-0.1,0-0.2l0-0.3c0-0.3-0.1-0.6-0.1-0.9c0-0.1,0-0.2,0-0.4
		c-0.1-1-0.2-2-0.4-2.9c-0.1-0.4-0.1-0.8-0.2-1.3l-0.2-1.1c0,0,0-0.1,0-0.1c-0.3-2.3-0.7-4.6-1.1-7c0,0,0-0.1,0-0.1
		c-0.1-0.7-0.3-1.4-0.4-2.2c-0.1-0.5-0.2-0.9-0.3-1.4c0-0.2-0.1-0.4-0.1-0.6l-0.1-0.3c0-0.2-0.1-0.3-0.1-0.5l-0.1-0.5
		c0-0.2-0.1-0.5-0.1-0.7c0-0.2-0.1-0.4-0.1-0.7c-0.1-0.5-0.2-1.1-0.3-1.6h0c-0.2-0.8-0.3-1.5-0.5-2.2c-0.1-0.5-0.2-0.9-0.3-1.4
		c-0.3-1.2-0.6-2.3-0.8-3.4c-0.1-0.5-0.3-1.1-0.4-1.6c-0.1-0.5-0.3-1-0.4-1.6c-0.1-0.5-0.3-0.9-0.4-1.4c0,0,0-0.1,0-0.1
		c-6.4-19.4-15.7-35-27.6-46.3c-6.5-6.2-13.8-11.1-21.6-14.7c-7.9-3.6-16.4-5.8-25.2-6.5C392.8,121.3,392,121.2,391.3,121.2
		L391.3,121.2z"/>
	<g>
		<circle class="st5" cx="479.8" cy="183.5" r="42"/>
		<path class="st6" d="M500.4,184.3c0,17.4-9.3,32.7-23.2,41.2c-22-1.4-39.4-19.7-39.4-41.9c0-21.5,16.2-39.3,37.1-41.7
			C490.1,149.9,500.4,165.9,500.4,184.3z"/>
		<path class="st2" d="M479.8,145.1c21.2,0,38.4,17.2,38.4,38.4c0,21.2-17.2,38.4-38.4,38.4c-21.2,0-38.4-17.2-38.4-38.4
			C441.4,162.3,458.6,145.1,479.8,145.1 M479.8,137.9c-25.2,0-45.6,20.5-45.6,45.6s20.5,45.6,45.6,45.6c25.2,0,45.6-20.5,45.6-45.6
			S505,137.9,479.8,137.9L479.8,137.9z"/>
		<path class="st7" d="M455.3,162.3c-1.4,2.5-2.7,5.1-3.7,7.8c-1,2.7-1.6,5.4-1.8,8.1c-0.2,2.7,0.2,5.2,1.1,7.6
			c0.9,2.3,2.2,4.4,3.9,6.2c1.5,1.6,1.4,4.1-0.2,5.6c-1.6,1.5-4.1,1.4-5.6-0.2c-0.2-0.2-0.4-0.4-0.5-0.7l-0.1-0.1
			c-1.7-2.9-2.9-6.1-3.4-9.5c-0.5-3.3-0.2-6.7,0.7-9.7c0.9-3,2.2-5.8,3.8-8.3c1.6-2.5,3.5-4.8,5.4-7c0.1-0.1,0.2-0.1,0.3,0
			C455.3,162.1,455.3,162.2,455.3,162.3L455.3,162.3z"/>
	</g>
	<g>
		<circle class="st5" cx="516.9" cy="214.3" r="42"/>
		<path class="st6" d="M537.4,215.1c0,17.4-9.3,32.7-23.2,41.2c-22-1.4-39.4-19.7-39.4-41.9c0-21.5,16.2-39.3,37.1-41.7
			C527.1,180.7,537.4,196.7,537.4,215.1z"/>
		<path class="st2" d="M516.9,175.9c21.2,0,38.4,17.2,38.4,38.4c0,21.2-17.2,38.4-38.4,38.4c-21.2,0-38.4-17.2-38.4-38.4
			C478.4,193.1,495.6,175.9,516.9,175.9 M516.9,168.7c-25.2,0-45.6,20.5-45.6,45.6s20.5,45.6,45.6,45.6c25.2,0,45.6-20.5,45.6-45.6
			S542,168.7,516.9,168.7L516.9,168.7z"/>
		<path class="st7" d="M492.3,193.1c-1.4,2.5-2.7,5.1-3.7,7.8c-1,2.7-1.6,5.4-1.8,8.1c-0.2,2.7,0.2,5.2,1.1,7.6
			c0.9,2.3,2.2,4.4,3.9,6.2c1.5,1.6,1.4,4.1-0.2,5.6c-1.6,1.5-4.1,1.4-5.6-0.2c-0.2-0.2-0.4-0.4-0.5-0.7l-0.1-0.1
			c-1.7-2.9-2.9-6.1-3.4-9.5c-0.5-3.3-0.2-6.7,0.7-9.7c0.9-3,2.2-5.8,3.8-8.3c1.6-2.5,3.5-4.8,5.4-7c0.1-0.1,0.2-0.1,0.3,0
			C492.3,192.9,492.4,193,492.3,193.1L492.3,193.1z"/>
	</g>
	<g>
		<circle class="st5" cx="449.4" cy="217.4" r="42"/>
		<path class="st6" d="M469.9,218.2c0,17.4-9.3,32.7-23.2,41.2c-22-1.4-39.4-19.7-39.4-41.9c0-21.5,16.2-39.3,37.1-41.7
			C459.6,183.8,469.9,199.8,469.9,218.2z"/>
		<path class="st2" d="M449.4,179c21.2,0,38.4,17.2,38.4,38.4c0,21.2-17.2,38.4-38.4,38.4c-21.2,0-38.4-17.2-38.4-38.4
			C410.9,196.2,428.1,179,449.4,179 M449.4,171.8c-25.2,0-45.6,20.5-45.6,45.6s20.5,45.6,45.6,45.6s45.6-20.5,45.6-45.6
			S474.5,171.8,449.4,171.8L449.4,171.8z"/>
		<path class="st7" d="M424.8,196.2c-1.4,2.5-2.7,5.1-3.7,7.8c-1,2.7-1.6,5.4-1.8,8.1c-0.2,2.7,0.2,5.2,1.1,7.6
			c0.9,2.3,2.2,4.4,3.9,6.2c1.5,1.6,1.4,4.1-0.2,5.6c-1.6,1.5-4.1,1.4-5.6-0.2c-0.2-0.2-0.4-0.4-0.5-0.7l-0.1-0.1
			c-1.7-2.9-2.9-6.1-3.4-9.5c-0.5-3.3-0.2-6.7,0.7-9.7c0.9-3,2.2-5.8,3.8-8.3c1.6-2.5,3.5-4.8,5.4-7c0.1-0.1,0.2-0.1,0.3,0
			C424.8,196,424.9,196.1,424.8,196.2L424.8,196.2z"/>
	</g>
	<path class="st8" d="M344.9,518c-20.8,0-41-0.8-57-2.2c-27.8-2.5-34.3-6-38.2-9.2c-3.4-2.7-5.3-6.8-5.3-11.1v-14.2
		c-30-8.6-55.8-19.9-76.9-33.7c-22.3-14.6-40.1-32.5-52.9-53.3c-21.5-34.8-30.2-77.9-27.2-135.6c0.2-4,2.1-7.7,5.2-10.2
		c2.6-2.1,5.7-3.2,9-3.2c0.7,0,1.3,0,2,0.1c77.4,11.1,157.2,16.7,237.3,16.7c79.4,0,161.3-5.5,243.6-16.4c0.6-0.1,1.2-0.1,1.9-0.1
		c3.2,0,6.3,1.1,8.9,3.1c3,2.4,4.9,6,5.3,9.8c2.5,27.8,1.2,53.7-3.8,76.9c-5.2,24.2-14.7,46.1-28.1,65.1
		c-13.7,19.4-31.8,36.3-53.8,50.2c-19.5,12.3-42.6,22.5-68.8,30.5v14.4c0,5.5-3.1,10.5-8.1,12.8c-4.6,2.2-13.7,5.4-38.8,7.6
		C383.7,517.3,364.9,518,344.9,518z"/>
	<path class="st9" d="M431.8,470.5v25c-6.2,3-19.5,5.1-36,6.4v-34.3H345c116.3-31.9,164.8-99.1,151.1-198.1
		c30-2.6,60.1-5.8,90.2-9.8C595.7,364.6,550.1,438.2,431.8,470.5z"/>
	<path class="st4" d="M258.6,495.6v-25C121,435.1,96.8,353.2,101.6,259.5c42.7,6.1,85.6,10.5,128.7,13.3
		c-47.2-0.5-99.7,1.1-104.3,10c-8.6,16.5-31.8,118.6,135.8,174.9c3.2,20.7-2.7,39.4,51.4,45.5C285.8,502.1,263.4,499.4,258.6,495.6z
		"/>
	<path class="st2" d="M101.6,259.5c79.3,11.3,159,16.8,239.3,16.8c81.3,0,163.1-5.6,245.4-16.5c9.4,104.8-36.2,178.4-154.5,210.7v25
		c-12,5.7-49.6,8.3-86.9,8.3c-40.1,0-79.7-3-86.3-8.3v-25C121,435.1,96.8,353.2,101.6,259.5 M101.6,231.1c-6.5,0-12.9,2.3-18,6.5
		c-6.2,5.1-9.9,12.5-10.3,20.4c-1.4,27.9-0.3,52.1,3.5,73.9c4.6,26.5,13.1,49.3,25.8,69.9c14,22.5,33.2,42,57.2,57.7
		c12.4,8.1,26.3,15.4,41.4,21.8c9.1,3.8,18.9,7.4,29.1,10.6v3.7c0,8.6,3.9,16.8,10.6,22.1c7.1,5.6,17.2,9.7,45.8,12.2
		c16.3,1.5,37,2.3,58.2,2.3c20.4,0,39.5-0.7,55.4-2.1c27.1-2.4,37.6-6,43.7-8.9c9.9-4.7,16.2-14.7,16.2-25.6v-4
		c23.3-7.8,44.1-17.5,62.1-28.9c23.6-14.9,43.1-33.1,57.8-54c14.5-20.6,24.7-44.2,30.4-70.3c5.3-24.6,6.7-51.9,4.1-81.1
		c-0.7-7.7-4.5-14.8-10.5-19.6c-5.1-4.1-11.3-6.2-17.7-6.2c-1.2,0-2.5,0.1-3.7,0.2c-81.6,10.8-162.9,16.3-241.7,16.3
		c-79.4,0-158.6-5.6-235.3-16.5C104.3,231.2,103,231.1,101.6,231.1L101.6,231.1z"/>
</g>
</svg>
