<?xml version="1.0" encoding="utf-8"?>
<!-- Generator: Adobe Illustrator 24.1.2, SVG Export Plug-In . SVG Version: 6.00 Build 0)  -->
<svg version="1.1" id="Camada_1" xmlns="http://www.w3.org/2000/svg" xmlns:xlink="http://www.w3.org/1999/xlink" x="0px" y="0px"
	 viewBox="0 0 2683.9 1657.2" style="enable-background:new 0 0 2683.9 1657.2;" xml:space="preserve">
<style type="text/css">
	.st0{fill:#61DD00;}
	.st1{fill:#33A000;}
	.st2{fill:#ED3A83;}
	.st3{fill:#D80049;}
	.st4{fill:#FFFFFF;}
</style>
<polygon class="st0" points="1240.9,0 1240.9,255 986.7,0.8 "/>
<polygon class="st1" points="1261.4,255 1261.4,139.1 1376.9,139.5 "/>
<circle class="st2" cx="1262.4" cy="591.4" r="243.7"/>
<path class="st3" d="M958.3,498.4l211.1-211.1C1068.4,318.4,989.4,397.4,958.3,498.4z"/>
<path class="st3" d="M1352.7,286.5l215.7,218.4C1538.6,400,1457.3,317.6,1352.7,286.5z"/>
<path class="st3" d="M1564.9,689.5l-204.4,204.4C1457.4,862.4,1533.4,786.4,1564.9,689.5z"/>
<path class="st3" d="M1169.7,895.6L957.3,680.8C987.5,783.5,1067.3,864.3,1169.7,895.6z"/>
<path class="st3" d="M1251.4,286.4l-230.2,230.2l233.5,233.5L1417,587.8l-160.7-160.6l-97,97l89.2,89.2l43.9-43.9l-45.3-45.2
	l9.2-9.2l72.8,72.8l-74.5,74.5L1109,516.6l142.4-142.4l220.2,220.2l-220.2,220.2l-298-298c-5.9,24.5-8.9,49.6-8.9,74.8
	c0,1.4,0,2.8,0,4.2l306.8,306.8l308-308L1251.4,286.4z"/>
<g>
	<path class="st4" d="M1216.3,1280.9l-5.6,14.9h0l0,0h17.1l0,0h0l16.7-44.5h40.3l2.8,7.3l14.1,37.2h17.2l0,0h0l-16.9-44.5h18.1v0h0
		v-16.1h-24.2l-22.4-59.9l11-28.8h0l0,0H1267l-2.3,5.9l-2.2-5.9h0l0,0h-17.3l11,28.8l-22.8,59.9h-25.5v0h0v16.1h19.5L1216.3,1280.9z
		 M1278.8,1235.2h-28.2l14.1-37.1L1278.8,1235.2z"/>
	<polygon class="st4" points="1361.3,1333.2 1045.2,1333.2 1045.2,1349.3 1045.2,1349.3 1045.2,1349.4 1361.4,1349.4 1361.4,1333.3 
		1361.3,1333.3 	"/>
	<path class="st4" d="M589.1,1449.9l-1.1-1.1c-12,12.8-24.7,22.1-38.2,27.8c-13,5.6-26.9,8.6-41,8.8c-17.2-0.1-33.3-3.8-48.4-11.2
		c-15.5-7.5-28.9-17.6-40.3-30.5c-11.4-12.6-20.4-27.4-27-44.4c-6.6-16.9-9.9-34.9-9.9-54c0-16.9,2.8-32.9,8.6-47.8
		c5.7-14.8,13.6-27.8,23.8-39c10-11,21.9-19.8,35.8-26.2c13.4-6.3,27.9-9.5,43.5-9.6c10.9,0.1,21.8,1.7,32.3,4.8v51.6h2.2v0h37.1
		v-30.3c2.7,2,5.6,4.8,8.8,8.4l1.1-1.2c0.4,0.4,0.7,0.8,1.1,1.2l27-28.6c-6.6-5.2-12.9-9.9-19-14.2c-6.2-4.1-12.6-8.1-19-12v-31.3
		h-37.1v0H527v17.1c-4.9-1.1-9.8-2-14.6-2.4c-5.7-0.5-11.4-0.8-17.1-0.8c-0.6,0-1.2,0-1.9,0c-0.1,0-0.2,0-0.3,0
		c-26.7-0.1-53,7.4-75.6,21.6c-11,6.9-21.1,15.3-29.9,24.8c-9.1,9.8-16.9,20.8-23.3,32.6c-6.5,12.2-11.4,25.1-14.7,38.5
		c-3.6,14-5.4,28.3-5.3,42.8c-0.1,20.3,3.2,40.6,9.6,59.9c6.1,18.7,15.3,36.3,27,52.1c11.3,15.4,25.2,28.7,41.1,39.3
		c15.8,10.8,33.4,18.5,52.1,22.7l-12.3,40.6l19.2,5.3c2.7,0.6,5,2.4,6.4,4.8c1.3,2.4,1.9,5,1.9,7.8c-0.4,2.8-1.8,5.4-4,7.2
		c-2,1.6-4.4,2.5-7,2.7h-45.9v0h-2.1v39.8h47c0.4,0,0.8,0,1.2,0h1c6.6,0,12.8-1.1,18.7-3.2c5.7-2.3,10.9-5.3,15.5-9.1
		c4.5-3.9,8.2-8.6,11.2-13.9c3-5.5,5-11.5,5.9-17.9l0.5-4.3v-3.5c0-7.7-1.5-15-4.5-21.9c-3.2-7.1-7.8-13-13.9-17.6l3.7-13.6
		c18.2-0.9,35.8-5.2,52.9-12.8c16.9-7.5,32.9-19.1,47.8-34.7l-27.3-26.2C589.8,1449.2,589.4,1449.6,589.1,1449.9z"/>
	<path class="st4" d="M791.5,1216.1l25.7-67.3h-40.6l0,0h-4.4l-3.1,8.1l-2.9-8.1h-40.3l0,0h-4.4l25.6,67.3l-53.2,139.7h-55.2v0h-4.4
		v37.7h45.4l-38.7,103.9h39.8l0,0h4.4l39-103.9h89.7l39.3,103.9h40.1l0,0h4.4L858,1393.5h37.8v0h4.4v-37.7h-56.4L791.5,1216.1z
		 M799.7,1355.9h-61.4L769,1275L799.7,1355.9z"/>
	<polygon class="st4" points="998.7,1095.9 976.8,1062.5 972.2,1065.5 970.2,1062.5 878.8,1122.9 900.8,1156.3 905.3,1153.2 
		907.3,1156.3 916.5,1150.2 916.5,1497.5 954.2,1497.5 954.2,1497.5 960.8,1497.5 960.8,1148.8 923.1,1148.8 923.1,1148.8 
		918.6,1148.8 	"/>
	<polygon class="st4" points="1793.6,1204.6 1836.9,1109.2 1838.5,1105.7 1838.5,1105.7 1838.5,1105.7 1794.7,1105.7 1794.7,1105.7 
		1794.7,1105.7 1778.1,1141.8 1773.6,1123.4 1769.3,1105.7 1728.4,1105.7 1751.4,1200.8 1639.2,1448.2 1529.1,1206.2 1553.4,1105.7 
		1553.4,1105.7 1553.4,1105.7 1512.8,1105.7 1512.8,1105.7 1512.8,1105.7 1508.3,1123.7 1502.4,1147.6 1490.1,1121 1483.1,1105.7 
		1439.6,1105.7 1487.1,1210.7 1412.1,1520.4 1453.2,1520.4 1453.2,1520.4 1453.2,1520.4 1513.9,1269.2 1628.2,1520.4 1650.1,1520.4 
		1766.5,1263.9 1766.6,1263.6 1807.5,1431.7 1829.1,1520.4 1829.1,1520.4 1829.2,1520.4 1870,1520.4 1852.5,1448.1 	"/>
	<polygon class="st4" points="1896.2,1149.3 1896.2,1149.3 1896.2,1497.9 1933.9,1497.9 1933.9,1497.9 1933.9,1497.9 1933.9,1149.3 
		1896.2,1149.3 	"/>
	<polygon class="st4" points="2189.3,1445.6 2033.6,1445.6 2033.6,1149.3 1995.9,1149.3 1995.9,1445.6 1960.3,1445.6 1960.3,1445.6 
		1960.3,1445.6 1960.3,1483.3 1995.9,1483.3 1995.9,1497.9 1995.9,1497.9 1995.9,1497.9 2033.6,1497.9 2033.6,1497.9 2033.6,1497.9 
		2033.6,1483.3 2189.3,1483.3 2189.3,1445.6 2189.3,1445.6 	"/>
	<polygon class="st4" points="2289,1149.3 2251.3,1149.3 2251.3,1149.3 2251.3,1149.3 2251.3,1445.6 2215.8,1445.6 2215.8,1445.6 
		2215.8,1445.6 2215.8,1483.3 2251.3,1483.3 2251.3,1497.9 2289,1497.9 2289,1497.9 2289,1497.9 2289,1483.3 2444.8,1483.3 
		2444.8,1483.2 2444.8,1483.2 2444.8,1445.6 2289,1445.6 	"/>
	<polygon class="st4" points="1361.3,1377.1 1045.2,1377.1 1045.2,1393.1 1045.2,1393.1 1045.2,1393.2 1361.4,1393.2 1361.4,1377.1 
		1361.3,1377.1 	"/>
	<path class="st4" d="M1078.2,1289.6h12.9v6.3h15.9v0h0v-6.3h22.8c3.7,0,7.5-0.3,11.1-0.9c0.6-0.1,1.1-0.2,1.7-0.3
		c0.1,0,0.3-0.1,0.4-0.1c1.5-0.3,3-0.7,4.5-1.1c0.5-0.1,1-0.3,1.5-0.5c0.1,0,0.3-0.1,0.4-0.1c0.4-0.1,0.8-0.3,1.2-0.4
		c0.3-0.1,0.7-0.2,1-0.3c0.3-0.1,0.5-0.2,0.7-0.3c0.4-0.2,0.9-0.3,1.3-0.5c0.2-0.1,0.4-0.2,0.6-0.3c0.5-0.2,0.9-0.4,1.4-0.6
		c0.3-0.1,0.6-0.2,0.8-0.4c0.4-0.2,0.8-0.3,1.1-0.5c0.5-0.2,0.9-0.5,1.4-0.7c0.2-0.1,0.4-0.2,0.5-0.3c1.3-0.7,2.6-1.4,3.9-2.1
		c3.8-2.2,7.3-4.8,10.5-7.7c1-0.9,2-1.9,3-2.8c1-1,1.9-2,2.8-3c0,0,0.1-0.1,0.1-0.1c0.9-1,1.8-2.1,2.6-3.2c0,0,0,0,0,0
		c1.7-2.3,3.3-4.7,4.8-7.2c2.9-5,5.2-10.4,6.8-16c0.2-0.6,0.3-1.2,0.5-1.8c0-0.1,0.1-0.3,0.1-0.4c0,0,0,0,0-0.1
		c0.3-1.4,0.6-2.9,0.9-4.3c0.6-3.7,1-7.5,0.9-11.3l-2-15l-0.4-2.8c-0.2-0.6-0.3-1.1-0.5-1.7c0-0.1-0.1-0.3-0.1-0.4
		c-0.1-0.2-0.1-0.3-0.2-0.5c-0.2-0.5-0.3-1.1-0.5-1.6c-0.1-0.2-0.1-0.4-0.2-0.5c-0.2-0.5-0.4-1-0.5-1.5c-1.3-3.4-2.9-6.6-4.7-9.7
		c0,0,0-0.1-0.1-0.1c-0.7-1.2-1.4-2.3-2.2-3.4c-0.1-0.1-0.1-0.2-0.2-0.3c-0.7-1.1-1.5-2.1-2.2-3.1c-0.1-0.1-0.2-0.3-0.3-0.4
		c-0.8-1-1.5-1.9-2.4-2.9c-0.1-0.1-0.2-0.3-0.4-0.4c-0.8-0.9-1.7-1.9-2.6-2.8c0,0-0.1-0.1-0.1-0.1c-4.1-4-8.7-7.5-13.6-10.5
		c-5-2.9-10.3-5.1-15.9-6.7c-5.6-1.6-11.5-2.4-17.6-2.4h-22.8v-9h0v-0.1h-15.9v9h-12.9v16.1h0v0h12.9v101.8h-12.9L1078.2,1289.6
		L1078.2,1289.6L1078.2,1289.6z M1107.1,1171.7h22.8c6.9,0,13.5,1.3,19.7,4c6.1,2.7,11.4,6.3,16,10.9c4.6,4.6,8.2,9.9,10.9,16
		c0.9,2.2,1.7,4.4,2.3,6.6c0,0.2,0.1,0.3,0.1,0.5c1,3.8,1.5,7.8,1.5,11.9c0,0.2,0,0.4,0,0.6l-3.9,19.8c-5.1,12.2-14.8,22-26.9,27.3
		c-6.3,2.7-13,4-19.8,4H1107v-60.1L1107.1,1171.7z"/>
	<path class="st4" d="M201.2,1208.8l-9.6-25.5l29.4-78h0l0,0h-42.5l-8.3,21.9l-8.3-21.9h-42.8l0,0h0l29.7,78l-64.7,171.5H13.1v0h0
		v39.8h55.8l-47,125.3h0h42.7h0l47-125.3h116.5l47.6,125.3h0h42.8h0l-47.6-125.3h51.8v0h0v-39.8H256L201.2,1208.8z M170.2,1239.6
		l43.3,115.2h-86.6l21.3-56.6L170.2,1239.6z"/>
	<path class="st4" d="M2670.8,1371.6L2670.8,1371.6L2670.8,1371.6l-29.1,0v-222.3H2604v0h0v222.3h-62.5c-3.8,0-7.3-0.4-10.7-1.3
		c-1.8-0.5-3.6-1.1-5.4-1.9c-0.2-0.1-0.5-0.2-0.7-0.3c-3.3-1.4-6.4-3.2-9.2-5.4c-1.7-1.3-3.3-2.7-4.7-4.3c-3.9-4.1-7-8.8-9.1-14
		c0-0.1-0.1-0.2-0.1-0.3c-2.1-5.2-3.3-10.8-3.3-16.5v-178.5h0v0h-37.7v0h0v178.5c0,5.5,0.5,10.9,1.6,16.2c1.1,5.3,2.7,10.4,4.8,15.3
		c0,0,0,0,0,0c0,0,0,0,0,0c2.1,4.8,4.6,9.4,7.5,13.7c2,3,4.3,5.9,6.7,8.6c0.2,0.2,0.3,0.4,0.5,0.5c0,0,0.1,0.1,0.1,0.1
		c0.8,0.9,1.7,1.8,2.6,2.7c1.5,1.5,3,2.9,4.6,4.3c0.4,0.3,0.8,0.7,1.2,1.1c0.3,0.2,0.5,0.4,0.8,0.6c0.8,0.6,1.5,1.2,2.3,1.8
		c5.2,3.9,11,7.2,17.1,9.6c0.6,0.3,1.3,0.5,1.9,0.8c3.1,1.3,6.2,2.3,9.4,3.2c6.5,1.7,13.2,2.5,19.9,2.5h62.5v7.7
		c0,5.7-1.1,11.3-3.2,16.6c-2.2,5.2-5.4,9.9-9.4,13.9c-2.9,2.9-6.3,5.4-9.9,7.5c-0.5,0.3-1,0.5-1.5,0.8c-0.1,0.1-0.2,0.1-0.3,0.2
		c-0.3,0.1-0.5,0.3-0.8,0.4c-0.4,0.2-0.7,0.4-1.1,0.5c-2.7,1.2-5.5,2-8.3,2.6c-2.8,0.6-5.7,0.9-8.8,0.9h-68.9v37.1h0v0h68.9
		c6.7,0,13.4-0.8,19.9-2.5c1.2-0.3,2.3-0.6,3.5-1c0.1,0,0.2-0.1,0.3-0.1c0.7-0.2,1.4-0.5,2-0.7c1.8-0.6,3.7-1.3,5.5-2.1
		c19.5-8,35.1-23.3,43.3-42.8c0.3-0.8,0.6-1.5,0.9-2.3c1.7-4.2,3-8.5,3.9-12.9c1-5.1,1.6-10.3,1.6-15.5c0-0.2,0-0.4,0-0.6v-7.7h29.1
		V1371.6z"/>
</g>
</svg>
