<?xml version="1.0" encoding="utf-8"?>
<!-- Generator: Adobe Illustrator 24.1.2, SVG Export Plug-In . SVG Version: 6.00 Build 0)  -->
<svg version="1.1" id="Textos" xmlns="http://www.w3.org/2000/svg" xmlns:xlink="http://www.w3.org/1999/xlink" x="0px" y="0px"
	 viewBox="0 0 2683.9 1657.2" style="enable-background:new 0 0 2683.9 1657.2;" xml:space="preserve">
<style type="text/css">
	.st0{fill:#FFFFFF;}
	.st1{fill:#2E2626;}
	.st2{fill:#ED3A83;}
	.st3{fill:#61DD00;}
	.st4{fill:#A02A7D;}
	.st5{opacity:0.5;fill:#FFFFFF;}
	.st6{fill:#523255;}
	.st7{fill:#70446D;}
	.st8{fill:#FFFEFD;}
	.st9{fill:#D80049;}
	.st10{opacity:0.2;}
</style>
<path class="st0" d="M2245.4,814.9c-7.6-13.5-20.6-23.1-35.8-26.3c-15.3-3.2-30.8-6.3-46.3-9.4c-5.5-93.5-26.7-184.6-63.2-270.7
	c-20.6-48.7-46.1-95.7-75.8-139.7c-29.4-43.5-63.2-84.5-100.4-121.7c-37.2-37.2-78.1-71-121.7-100.4c-44-29.7-91-55.2-139.7-75.8
	c-101.4-42.9-209.1-64.6-320.1-64.6c-111,0-218.7,21.7-320.1,64.6c-4.6,1.9-9.3,4-14.1,6.1c-9.5-5.5-19.3-10.8-29-15.7
	c-8.6-4.3-18.2-6.6-27.8-6.6c-12.7,0-25,3.9-35.4,11.2c-18.6,13.1-28.5,35.3-25.7,57.9l2,16.5c-3.3,2.2-6.6,4.3-9.7,6.5
	c-0.5,0.3-0.9,0.6-1.4,0.9c-9.9-0.6-19.9-0.9-29.9-0.9c-39.5,0-82.8,4.7-128.8,13.8c-42.9,8.6-89.6,21.3-138.8,38
	c-11.7,3.9-21.8,11.2-29.2,21c-7.5,9.8-11.8,21.4-12.5,33.7c-0.7,12.3,2.2,24.4,8.5,35c6.3,10.6,15.5,19,26.6,24.2
	c23.7,11.3,50.6,29,84,55.5c-0.2,0.3-0.3,0.5-0.5,0.8c-29.7,44-55.2,91-75.8,139.7c-36.4,86-57.6,176.9-63.2,270.3
	c-16.1,3.2-32,6.5-47.5,9.8c-15.7,3.3-28.9,13.4-36.3,27.7c-7.4,14.2-8,30.9-1.8,45.6c44.1,103.6,63,238.3,57.8,411.8
	c-0.5,16.2,6.3,31.5,18.5,42.1c9.4,8.1,21.2,12.7,33.5,13l181.6,45.6c10.9,12.3,22.2,24.2,33.6,35.6c37.2,37.2,78.1,71,121.7,100.4
	c44,29.7,91,55.2,139.7,75.8c101.4,42.9,209.1,64.6,320.1,64.6c111,0,218.7-21.7,320.1-64.6c48.7-20.6,95.7-46.1,139.7-75.8
	c43.5-29.4,84.5-63.2,121.7-100.4c9.5-9.5,19-19.5,28.3-29.8l190.2-50.3c10.2-1.4,19.7-5.7,27.5-12.5c12.6-10.8,19.3-26.5,18.5-43.1
	c-7-144.8,13.4-284.5,60.6-415.3C2254.2,844.6,2252.9,828.4,2245.4,814.9z"/>
<g>
	<path class="st1" d="M2090,512.8c-20.3-48.1-45.5-94.5-74.8-137.8c-29-43-62.3-83.3-99-120c-36.7-36.7-77.1-70-120-99
		c-43.4-29.3-89.7-54.5-137.8-74.8c-100-42.3-206.3-63.8-315.8-63.8c-109.5,0-215.8,21.5-315.8,63.8
		c-48.1,20.3-94.5,45.5-137.8,74.8c-43,29-83.3,62.3-120,99c-36.7,36.7-70,77.1-99,120c-29.3,43.4-54.5,89.7-74.8,137.8
		c-42.3,100-63.8,206.3-63.8,315.8s21.5,215.8,63.8,315.8c20.3,48.1,45.5,94.5,74.8,137.8c29,42.9,62.3,83.3,99,120
		c36.7,36.7,77.1,70,120,99c43.4,29.3,89.7,54.5,137.8,74.8c100,42.3,206.3,63.8,315.8,63.8c109.5,0,215.8-21.5,315.8-63.8
		c48.1-20.3,94.5-45.5,137.8-74.8c43-29,83.3-62.3,120-99c36.7-36.7,70-77.1,99-120c29.3-43.4,54.5-89.7,74.8-137.8
		c42.3-100,63.8-206.3,63.8-315.8S2132.3,612.8,2090,512.8z M2113.5,828.6c0,425.8-345.2,771.1-771.1,771.1
		s-771.1-345.2-771.1-771.1S916.6,57.5,1342.5,57.5S2113.5,402.8,2113.5,828.6z"/>
	<polygon class="st1" points="545.1,1317.3 1367.2,1523.5 2142.1,1318.7 2142.1,1157.9 548.1,1157.9 	"/>
	<circle class="st2" cx="1342.5" cy="828.6" r="771.1"/>
	<circle class="st1" cx="1342.5" cy="828.6" r="521.2"/>
	<path class="st3" d="M951.5,116.3l13.7,110c-34.1-12.2-72.1-18-113.7-18c-72.6,0-156,17.5-247.8,48.6c136,64.6,273.6,260,398.7,260
		c35,0,69.1-15.3,101.8-53.2C1208.3,343.4,1107.6,195.3,951.5,116.3z"/>
	<path class="st1" d="M1193.3,316.2c-5-25.2-14.5-50.4-28.4-75c-12.8-22.7-29.4-45-49.2-66.2c-37.4-40-86.3-75.9-141.5-103.8
		c-7.2-3.6-15-5.4-22.8-5.4c-10.2,0-20.4,3.1-29.1,9.2c-15.3,10.7-23.4,29-21.1,47.6l4.8,38.5c-17.6-2.2-35.8-3.2-54.7-3.2
		c-38.7,0-81.3,4.6-126.6,13.6c-42.4,8.5-88.6,21.1-137.4,37.6c-19.5,6.6-33.1,24.4-34.3,44.9c-1.2,20.6,10.2,39.8,28.8,48.6
		c49.9,23.7,104.1,70.7,156.6,116.3c40,34.7,81.4,70.6,122.8,97.9c23.7,15.7,45.5,27.3,66.7,35.6c25.6,10,50.6,15.1,74.4,15.1
		c52.4,0,99.5-23.8,140.1-70.6C1188.4,443.6,1206.1,381.1,1193.3,316.2z M1002.3,516.9c-125.1,0-262.6-195.4-398.7-260
		c91.8-31.1,175.2-48.6,247.8-48.6c41.6,0,79.7,5.7,113.7,18l-13.7-110c156.2,79,256.9,227.1,152.6,347.5
		C1071.3,501.6,1037.3,516.9,1002.3,516.9z"/>
	<path class="st1" d="M1020.2,182.9c9.1,9.4,17.5,19.4,25.6,29.7c8,10.4,15.7,21.2,22.8,32.3c7.1,11.2,13.8,22.7,19.9,34.6
		c6.1,12,11.5,24.3,16.3,37c4.9,12.7,8.7,25.9,11.9,39.4c0.7,3.4,1.6,6.8,2.2,10.2l1.8,10.4c0.3,1.7,0.5,3.5,0.7,5.2l0.6,5.3
		l0.6,5.3l0.4,5.3c1.2,14.2,0.7,28.6-0.6,43.1l-1.3,10.8c-0.6,3.6-1.3,7.2-1.9,10.8l-1,5.4c-0.4,1.8-0.9,3.6-1.3,5.3l-2.7,10.7
		c-4.1,15.9-20.2,25.5-36.1,21.4c-15.9-4.1-25.5-20.2-21.4-36.1c0.4-1.8,1-3.4,1.8-5l0.6-1.3l3.6-7.7l1.8-3.9l1.5-4
		c1-2.7,2.1-5.3,3.1-8l2.6-8.2c3.2-11,5.8-22.4,7-34.2l0.5-4.4l0.3-4.4l0.3-4.5c0.1-1.5,0.2-3,0.2-4.5l0.2-9c0-3-0.2-6-0.2-9.1
		c-0.5-12.1-1.7-24.4-3.9-36.6c-2.1-12.2-5-24.4-8.5-36.5c-3.6-12.1-7.8-24.1-12.6-35.9c-4.8-11.8-10.1-23.5-16-35
		c-5.9-11.4-12.3-22.7-19.5-33.5l0,0c-0.2-0.3-0.1-0.6,0.2-0.8C1019.7,182.7,1020,182.7,1020.2,182.9z"/>
	<path class="st1" d="M774.3,252.1c13-0.9,26.1-0.9,39.3-0.3c13.1,0.6,26.3,1.7,39.4,3.5c13.1,1.8,26.2,4.1,39.3,7.2
		c13,3.1,26,6.9,38.8,11.5c12.8,4.5,25.4,10.1,37.8,16.4c3.1,1.6,6.2,3.2,9.2,4.9l9,5.3c1.5,0.9,3,1.9,4.4,2.8l4.4,2.9l4.4,2.9
		l4.3,3.2c11.6,8.3,22.3,17.9,32.4,28.3l7.4,8c2.4,2.8,4.7,5.6,7,8.4l3.5,4.3c1.1,1.5,2.1,3,3.2,4.5l6.4,9c9.5,13.4,6.4,31.9-7,41.4
		c-13.4,9.5-31.9,6.4-41.4-7c-1.1-1.5-2-3-2.7-4.6l-0.6-1.3l-3.5-7.7l-1.8-3.9l-2-3.7c-1.4-2.5-2.7-5-4.1-7.5l-4.6-7.3
		c-6.4-9.6-13.4-18.9-21.6-27.4l-3-3.3l-3.2-3.1l-3.2-3.1c-1.1-1-2.1-2.1-3.3-3.1l-6.8-5.9c-2.3-2-4.7-3.8-7.1-5.7
		c-9.6-7.4-19.7-14.5-30.4-20.7c-10.7-6.3-21.9-12-33.4-17.1c-11.5-5.1-23.4-9.6-35.5-13.7c-12.1-4-24.5-7.5-37-10.4
		c-12.5-2.9-25.3-5.3-38.1-6.8l0,0c-0.3,0-0.5-0.3-0.5-0.6C773.8,252.3,774.1,252.1,774.3,252.1z"/>
	<path class="st4" d="M1607.9,512.6c-0.4,0-0.8,0-1.2,0l-701.2-26.1c-9-0.3-17.4-4.3-23.3-11.1c-5.9-6.7-8.9-15.6-8.1-24.5
		c3.8-42.9,18.6-75.1,44.1-95.7c22.4-18.1,52.2-26.9,91.1-26.9c39.2,0,85.2,8.8,134,18.7c-0.5-0.6-1.1-1.3-1.6-2
		c-1.1-1.4-2.1-2.7-3.1-4.1c-0.4-0.6-0.8-1.2-1.2-1.7c-0.1-0.1-0.7-1.1-0.7-1.1c-0.3-0.5-0.6-1-1-1.5c-0.3-0.4-0.5-0.8-0.7-1.2
		c0-0.1-0.1-0.1-0.1-0.2c-0.5-0.8-0.9-1.6-1.3-2.4c-7.9-14.4-11-30.1-9.1-46.5c2.7-23.9,16.7-42.6,39.5-52.8
		c15.1-6.7,33.8-9.9,58.8-9.9c27.7,0,59.9,4,91.2,7.8c30,3.7,61.1,7.5,86.1,7.5c20.6,0,31-2.6,36.1-4.8c3.6-1.6,4-2.3,4.2-3.5
		c0-0.2,0.1-0.3,0.1-0.5l0-0.3c0-0.1,0.1-0.4,0.1-0.4c0-0.1,0.1-0.6,0.1-0.6c0-0.1,0-0.8,0-1c0-0.2,0-0.3,0-0.5c0-0.2,0-0.5,0-0.7
		c0-1.2-0.2-2.5-0.3-3.9c0-0.1,0-0.2,0-0.3l-0.2-1.2c-0.1-0.8-0.3-1.6-0.5-2.4l0-0.1c-0.1-0.4-0.2-0.8-0.3-1.2c0-0.1,0-0.1,0-0.2
		c0-0.2-0.1-0.4-0.2-0.7c0-0.1-0.4-1.5-0.4-1.6c-0.4-1.4-0.7-2.7-1.1-4c-3.2-10.4-1.1-21.7,5.8-30.2c6.2-7.8,15.6-12.2,25.5-12.2
		c0.9,0,1.8,0,2.8,0.1c35.3,3,66.3,17,92.2,41.8c24.5,23.4,43.8,56.2,57.5,97.4c0,0,0,0,0,0c0.2,0.6,0.4,1.2,0.6,1.8
		c0.3,1.1,0.6,2.3,0.9,3.4c0.3,1.1,0.6,2.3,0.9,3.4c0.6,2.4,1.2,5,1.9,7.6c0.2,1,0.5,2.1,0.7,3.1c0.4,1.6,0.7,3.3,1.1,5
		c0.3,1.2,0.5,2.5,0.8,3.8c0.1,0.4,0.2,0.8,0.3,1.3c0.1,0.6,0.7,3.4,0.7,3.5c0,0,0.3,1.8,0.4,2.3c0.2,1.1,0.4,2.1,0.6,3.2
		c0.3,1.5,0.6,3.2,0.8,4.8c0.9,5.4,1.7,10.7,2.5,15.9l0.4,2.8c0.1,0.9,0.2,1.7,0.4,2.6c0.3,2.3,0.6,4.5,0.9,6.8
		c0,0.2,0.1,0.7,0.1,0.8c0.1,0.7,0.2,1.4,0.3,2.1c0,0,0.1,0.9,0.1,0.9c0.3,2.9,0.7,5.9,1,8.9c0.2,1.7,0.3,3.5,0.5,5.3
		c0,0.2,0,0.4,0.1,0.6c0.2,1.6,0.3,3.3,0.4,4.9c0.2,1.8,0.3,3.6,0.5,5.5c0.1,0.9,0.2,1.8,0.2,2.8c0.2,2.2,0.3,4.3,0.5,6.5
		c0.3,4.7,0.6,9.6,0.9,14.5c0,0.1,0.1,1.6,0.1,1.6c0,1,0.1,2,0.1,3.1c0.1,1.1,0.1,2.3,0.1,3.4c0.1,1.2,0.1,2.5,0.1,3.7
		c0.1,3.1,0.2,6.2,0.3,9.4c0,0.1,0.1,3.6,0.1,3.6c0.1,2.9,0.1,5.9,0.2,8.9c0,1.1,0,2.3,0,3.4l0,0.2c0,3.3,0.1,6.6,0.1,9.9
		c0,8.9-3.6,17.5-10,23.7C1624.6,509.3,1616.4,512.6,1607.9,512.6z"/>
	<path class="st5" d="M1607.9,512.6c-0.4,0-0.8,0-1.2,0l-701.2-26.1c-9-0.3-17.4-4.3-23.3-11.1c-5.9-6.7-8.9-15.6-8.1-24.5
		c3.8-42.9,18.6-75.1,44.1-95.7c22.4-18.1,52.2-26.9,91.1-26.9c39.2,0,85.2,8.8,134,18.7c-0.5-0.6-1.1-1.3-1.6-2
		c-1.1-1.4-2.1-2.7-3.1-4.1c-0.4-0.6-0.8-1.2-1.2-1.7c-0.1-0.1-0.7-1.1-0.7-1.1c-0.3-0.5-0.6-1-1-1.5c-0.3-0.4-0.5-0.8-0.7-1.2
		c0-0.1-0.1-0.1-0.1-0.2c-0.5-0.8-0.9-1.6-1.3-2.4c-7.9-14.4-11-30.1-9.1-46.5c2.7-23.9,16.7-42.6,39.5-52.8
		c15.1-6.7,33.8-9.9,58.8-9.9c27.7,0,59.9,4,91.2,7.8c30,3.7,61.1,7.5,86.1,7.5c20.6,0,31-2.6,36.1-4.8c3.6-1.6,4-2.3,4.2-3.5
		c0-0.2,0.1-0.3,0.1-0.5l0-0.3c0-0.1,0.1-0.4,0.1-0.4c0-0.1,0.1-0.6,0.1-0.6c0-0.1,0-0.8,0-1c0-0.2,0-0.3,0-0.5c0-0.2,0-0.5,0-0.7
		c0-1.2-0.2-2.5-0.3-3.9c0-0.1,0-0.2,0-0.3l-0.2-1.2c-0.1-0.8-0.3-1.6-0.5-2.4l0-0.1c-0.1-0.4-0.2-0.8-0.3-1.2c0-0.1,0-0.1,0-0.2
		c0-0.2-0.1-0.4-0.2-0.7c0-0.1-0.4-1.5-0.4-1.6c-0.4-1.4-0.7-2.7-1.1-4c-3.2-10.4-1.1-21.7,5.8-30.2c6.2-7.8,15.6-12.2,25.5-12.2
		c0.9,0,1.8,0,2.8,0.1c35.3,3,66.3,17,92.2,41.8c24.5,23.4,43.8,56.2,57.5,97.4c0,0,0,0,0,0c0.2,0.6,0.4,1.2,0.6,1.8
		c0.3,1.1,0.6,2.3,0.9,3.4c0.3,1.1,0.6,2.3,0.9,3.4c0.6,2.4,1.2,5,1.9,7.6c0.2,1,0.5,2.1,0.7,3.1c0.4,1.6,0.7,3.3,1.1,5
		c0.3,1.2,0.5,2.5,0.8,3.8c0.1,0.4,0.2,0.8,0.3,1.3c0.1,0.6,0.7,3.4,0.7,3.5c0,0,0.3,1.8,0.4,2.3c0.2,1.1,0.4,2.1,0.6,3.2
		c0.3,1.5,0.6,3.2,0.8,4.8c0.9,5.4,1.7,10.7,2.5,15.9l0.4,2.8c0.1,0.9,0.2,1.7,0.4,2.6c0.3,2.3,0.6,4.5,0.9,6.8
		c0,0.2,0.1,0.7,0.1,0.8c0.1,0.7,0.2,1.4,0.3,2.1c0,0,0.1,0.9,0.1,0.9c0.3,2.9,0.7,5.9,1,8.9c0.2,1.7,0.3,3.5,0.5,5.3
		c0,0.2,0,0.4,0.1,0.6c0.2,1.6,0.3,3.3,0.4,4.9c0.2,1.8,0.3,3.6,0.5,5.5c0.1,0.9,0.2,1.8,0.2,2.8c0.2,2.2,0.3,4.3,0.5,6.5
		c0.3,4.7,0.6,9.6,0.9,14.5c0,0.1,0.1,1.6,0.1,1.6c0,1,0.1,2,0.1,3.1c0.1,1.1,0.1,2.3,0.1,3.4c0.1,1.2,0.1,2.5,0.1,3.7
		c0.1,3.1,0.2,6.2,0.3,9.4c0,0.1,0.1,3.6,0.1,3.6c0.1,2.9,0.1,5.9,0.2,8.9c0,1.1,0,2.3,0,3.4l0,0.2c0,3.3,0.1,6.6,0.1,9.9
		c0,8.9-3.6,17.5-10,23.7C1624.6,509.3,1616.4,512.6,1607.9,512.6z"/>
	<path class="st4" d="M1607.9,479.9l-667.6-29.8c45.9-155.1,284.2,31,551.5-66.6c-47,8.4-290.9,9.5-329.4-66.3
		c-60.2-135.1,373.6,91.9,306.5-115.5c55.2,4.7,97.2,43.8,121.4,117C1601.8,361.1,1607.8,414.6,1607.9,479.9z"/>
	<path class="st1" d="M1468.9,201.7c55.2,4.7,97.2,43.8,121.4,116.9c0,0,0,0,0,0.1c0.3,1,0.6,2.1,0.8,3.2c0.3,1,0.5,2,0.8,2.9
		c0.6,2.3,1.2,4.7,1.7,7.1c0.2,0.9,0.4,1.9,0.6,2.8c0.3,1.5,0.7,3.1,1,4.7c0.3,1.2,0.5,2.5,0.8,3.8c0.1,0.3,0.1,0.6,0.2,0.9
		c0.2,1,0.4,2,0.6,3c0.1,0.8,0.3,1.6,0.5,2.5c0.2,1,0.4,2,0.6,3c0.3,1.5,0.5,3,0.8,4.5c0.8,4.9,1.6,9.8,2.3,14.9
		c0.1,0.9,0.3,1.8,0.4,2.7c0.1,0.7,0.2,1.4,0.3,2.2c0.3,2.2,0.6,4.4,0.9,6.7c0,0.2,0.1,0.5,0.1,0.7c0.1,0.9,0.2,1.9,0.3,2.8
		c0.3,2.8,0.6,5.7,0.9,8.6c0.2,1.7,0.3,3.3,0.5,5c0,0.1,0,0.1,0,0.2c0.2,1.7,0.3,3.4,0.5,5.1c0.2,1.7,0.3,3.5,0.4,5.3
		c0.1,0.8,0.1,1.6,0.2,2.4c0.2,2.1,0.3,4.2,0.5,6.4c0.3,4.6,0.6,9.3,0.8,14.1c0.1,1.5,0.1,3,0.2,4.5c0.1,1.1,0.1,2.2,0.1,3.3
		c0.1,1.1,0.1,2.3,0.1,3.5c0.1,3,0.2,6.1,0.3,9.1c0,1.2,0.1,2.3,0.1,3.5c0.1,2.8,0.1,5.7,0.2,8.6c0,1.2,0,2.3,0,3.5
		c0,3.2,0.1,6.4,0.1,9.6L972,456.2l-65.2-2.4c6.3-71.3,44.9-92.7,102.6-92.7c82.3,0,203.4,43.4,325,47.3c0,0,0,0,0,0
		c1.4,0,2.8,0.1,4.2,0.1c0.8,0,1.6,0,2.4,0.1c1,0,2,0,3.1,0c0.9,0,1.8,0,2.7,0c1.5,0,3.1,0,4.6,0c4.7,0,9.4-0.1,14.1-0.2
		c1.5,0,3.1-0.1,4.6-0.2c1.2,0,2.4-0.1,3.7-0.2c1.4-0.1,2.8-0.1,4.3-0.2c1.5-0.1,3-0.2,4.5-0.3c1.4-0.1,2.8-0.2,4.2-0.3
		c0.2,0,0.4,0,0.6,0c1.1-0.1,2.2-0.2,3.3-0.3c0.5,0,1.1-0.1,1.6-0.1c1-0.1,2-0.2,3-0.3c0.4,0,0.8-0.1,1.3-0.1
		c1.1-0.1,2.1-0.2,3.1-0.3c0.8-0.1,1.5-0.2,2.3-0.3c1.3-0.1,2.5-0.3,3.8-0.4c1.1-0.1,2.1-0.3,3.2-0.4c1.8-0.2,3.6-0.5,5.3-0.7
		c1.3-0.2,2.6-0.4,3.9-0.6c1.3-0.2,2.6-0.4,3.8-0.6c0.9-0.1,1.8-0.3,2.8-0.5c0.7-0.1,1.5-0.3,2.2-0.4c7.3-1.3,14.6-2.9,21.9-4.7
		c1-0.2,2-0.5,3-0.8c0.6-0.1,1.2-0.3,1.8-0.5c1.3-0.3,2.6-0.7,3.9-1.1c1.3-0.3,2.5-0.7,3.8-1.1c0.4-0.1,0.8-0.2,1.2-0.3
		c0.8-0.2,1.6-0.5,2.4-0.7c0.7-0.2,1.4-0.4,2-0.6c1-0.3,1.9-0.6,2.9-0.9c1.2-0.4,2.3-0.8,3.5-1.1c1-0.3,2.1-0.7,3.1-1.1
		c1.1-0.4,2.2-0.8,3.3-1.2c1.1-0.4,2.1-0.8,3.2-1.2c1.3-0.5,2.5-0.9,3.7-1.4c0.7-0.3,1.5-0.6,2.2-0.9c0.9-0.4,1.8-0.7,2.7-1.1
		c0,0,0.1,0,0.1-0.1c-0.4,0.1-0.7,0.1-1.1,0.2c-0.4,0.1-0.8,0.1-1.2,0.2c-0.1,0-0.2,0-0.4,0.1c-0.6,0.1-1.2,0.2-1.8,0.3
		c-1.6,0.2-3.3,0.4-5.1,0.6c-0.8,0.1-1.7,0.2-2.6,0.3c-5,0.5-10.8,0.9-17.3,1.2c-1,0-2,0.1-3.1,0.1c-1,0-2.1,0.1-3.2,0.1
		c-1.1,0-2.1,0.1-3.2,0.1c-5,0.2-10.4,0.3-16,0.3c-1.3,0-2.5,0-3.8,0c-1.4,0-2.9,0-4.4,0c-4.5,0-9.2,0-14-0.1c-1.4,0-2.8,0-4.3-0.1
		c-1.1,0-2.2,0-3.3-0.1c-1.5,0-2.9-0.1-4.4-0.1c-2-0.1-4-0.1-6-0.2c-1.1,0-2.3-0.1-3.4-0.1c-1.5-0.1-3-0.1-4.6-0.2
		c-0.9,0-1.8-0.1-2.7-0.1c-1.8-0.1-3.6-0.2-5.4-0.3c-0.9,0-1.9-0.1-2.8-0.1c-1.8-0.1-3.6-0.2-5.4-0.3c-2.8-0.2-5.6-0.4-8.3-0.6
		c-1.7-0.1-3.3-0.2-5-0.4c-0.2,0-0.4,0-0.6,0c-1.5-0.1-2.9-0.2-4.4-0.4c-1.3-0.1-2.7-0.2-4-0.3c-0.9-0.1-1.9-0.2-2.8-0.3
		c-1.1-0.1-2.2-0.2-3.3-0.3c-2.7-0.3-5.4-0.5-8-0.8c0,0-0.1,0-0.1,0c-0.9-0.1-1.9-0.2-2.8-0.3c-5-0.5-10.1-1.1-15.1-1.8
		c-2.6-0.3-5.1-0.7-7.6-1c-0.2,0-0.4-0.1-0.6-0.1c-0.7-0.1-1.5-0.2-2.2-0.3c-3.2-0.4-6.4-0.9-9.5-1.4c-1.4-0.2-2.7-0.4-4.1-0.7
		c-6.8-1.1-13.5-2.4-20.2-3.7c-1.7-0.3-3.3-0.7-5-1c-1.8-0.4-3.6-0.8-5.3-1.2c-1.8-0.4-3.5-0.8-5.3-1.2c-0.9-0.2-1.7-0.4-2.6-0.6
		c-1.8-0.4-3.6-0.9-5.4-1.4c-1.5-0.4-3-0.8-4.5-1.2c-0.1,0-0.2-0.1-0.4-0.1c-1.7-0.5-3.4-0.9-5-1.4c-0.8-0.2-1.7-0.5-2.5-0.7
		c-1.6-0.5-3.3-1-4.9-1.5c-2.4-0.8-4.8-1.6-7.1-2.4c-0.8-0.3-1.6-0.5-2.3-0.8c-8.2-2.9-15.8-6.1-22.8-9.6c-0.5-0.3-1-0.5-1.5-0.8
		c-0.7-0.4-1.4-0.7-2.1-1.1c-0.7-0.4-1.5-0.8-2.2-1.2c-0.2-0.1-0.4-0.2-0.6-0.4c-0.4-0.2-0.8-0.5-1.2-0.7c-2.9-1.7-5.7-3.4-8.3-5.2
		c-0.5-0.3-1-0.7-1.4-1c-1.4-1-2.8-2.1-4.1-3.1c-0.4-0.4-0.9-0.7-1.3-1.1c-0.4-0.4-0.9-0.7-1.3-1.1c-0.4-0.4-0.8-0.7-1.2-1.1
		c-0.8-0.7-1.6-1.5-2.4-2.2c-0.4-0.4-0.8-0.8-1.1-1.1c-0.4-0.4-0.7-0.8-1.1-1.2c-0.4-0.4-0.7-0.8-1.1-1.2c-0.7-0.8-1.4-1.6-2-2.4
		c-0.6-0.8-1.3-1.6-1.8-2.5c-0.3-0.4-0.6-0.8-0.9-1.2c-0.3-0.4-0.5-0.8-0.8-1.2c0-0.1-0.1-0.1-0.1-0.2c-0.2-0.4-0.5-0.8-0.7-1.2
		c0,0,0,0,0,0c-0.3-0.4-0.5-0.9-0.7-1.3c-4.5-8.2-6.4-17.2-5.3-27.2c2.9-25.9,29.3-33.5,65.7-33.5c51.7,0,123.7,15.3,177.2,15.3
		c38.7,0,67.7-8,72.6-35.6c0-0.1,0-0.1,0-0.2c0.1-0.6,0.2-1.1,0.3-1.7c0-0.3,0.1-0.5,0.1-0.8c0.1-0.4,0.1-0.8,0.1-1.3
		c0-0.5,0.1-1,0.1-1.5c0-0.5,0-0.9,0.1-1.4c0-0.6,0-1.2,0-1.8c0-0.5,0-1.1,0-1.6c-0.1-2.3-0.3-4.7-0.6-7.2c-0.1-0.5-0.1-1-0.2-1.5
		v-0.1c-0.1-0.4-0.1-0.8-0.2-1.2c-0.2-1.1-0.4-2.3-0.7-3.5c-0.1-0.6-0.3-1.2-0.4-1.8c-0.1-0.6-0.3-1.2-0.4-1.7
		c-0.1-0.5-0.3-1-0.4-1.6C1470,205.5,1469.5,203.6,1468.9,201.7 M1468.9,136.2c-19.7,0-38.5,8.9-51,24.4
		c-10.5,13-15.5,29.3-14.3,45.6c-1.1,0-2.3,0-3.6,0c-23,0-53-3.7-82.1-7.3c-32.2-4-65.5-8.1-95.2-8.1c-29.8,0-52.7,4-72.2,12.7
		c-33.4,14.9-54.7,43.7-58.7,79.1c-0.8,7.1-0.9,14.2-0.4,21.1c-29-4.9-56.6-8.3-82.2-8.3c-46.7,0-83.3,11.2-111.7,34.1
		c-32.6,26.4-51.5,66.1-56.1,118.3c-1.6,17.9,4.2,35.6,16.1,49.1c11.9,13.5,28.8,21.5,46.7,22.1l65.2,2.4l635.9,23.6
		c0.8,0,1.6,0,2.4,0c17,0,33.3-6.6,45.5-18.4c12.8-12.4,20-29.5,20-47.3c0-3.3,0-6.7-0.1-10.2c0-1.3,0-2.5,0-3.8
		c0-2.7-0.1-5.7-0.2-9c0-0.7,0-1.3,0-2c0-0.5,0-0.9,0-1.4c0-0.1,0-0.3,0-0.4c-0.1-3-0.2-6.1-0.3-9.6c0-1.3-0.1-2.6-0.2-3.9
		c0-1.2-0.1-2.4-0.2-3.6c0-1.1-0.1-2.1-0.1-3.2l-0.1-1.3c0-0.1,0-0.2,0-0.3c-0.3-5.1-0.6-10.2-0.9-15.1c-0.2-2.4-0.3-4.6-0.5-6.7
		c-0.1-1.3-0.2-2.3-0.2-3.1c-0.1-1.9-0.3-3.8-0.5-5.7c-0.1-1.6-0.3-3.3-0.4-4.9c0-0.3,0-0.5-0.1-0.8c-0.2-1.9-0.4-3.7-0.5-5.5
		c-0.3-3.1-0.7-6.2-1-9.3c0-0.1,0-0.3-0.1-0.4l-0.1-0.7c-0.1-0.7-0.2-1.5-0.3-2.2c0-0.3-0.1-0.6-0.1-0.9c-0.3-2.4-0.6-4.7-0.9-7
		c-0.1-1-0.3-2-0.4-3l-0.4-2.6c0-0.1,0-0.2,0-0.2c-0.8-5.5-1.7-11.1-2.6-16.6c0-0.1,0-0.2,0-0.3c-0.3-1.7-0.6-3.4-0.9-5.1
		c-0.2-1.1-0.4-2.2-0.6-3.3c-0.1-0.5-0.2-1-0.3-1.4l-0.1-0.7c-0.1-0.4-0.1-0.8-0.2-1.2l-0.2-1.1c-0.1-0.6-0.2-1.1-0.3-1.7
		c-0.1-0.4-0.2-1-0.3-1.6c-0.3-1.3-0.5-2.6-0.8-3.9h0c-0.4-1.8-0.8-3.6-1.2-5.3c-0.2-1.1-0.5-2.2-0.8-3.4c-0.6-2.8-1.3-5.6-2-8.2
		c-0.3-1.3-0.6-2.5-1-3.8c-0.3-1.3-0.7-2.5-1-3.7c-0.3-1.1-0.6-2.2-1-3.3c0-0.1,0-0.1-0.1-0.2c-15.4-46.4-37.5-83.6-65.9-110.7
		c-15.5-14.8-32.9-26.6-51.7-35.1c-18.8-8.5-39.1-13.8-60.3-15.6C1472.6,136.3,1470.7,136.2,1468.9,136.2L1468.9,136.2z"/>
	<g>
		<circle class="st6" cx="1680.6" cy="285.1" r="100.5"/>
		<path class="st7" d="M1729.8,286.9c0,41.6-22.2,78.2-55.4,98.4c-52.5-3.2-94.2-47-94.2-100.3c0-51.4,38.8-93.9,88.7-99.8
			C1705.1,204.7,1729.8,243,1729.8,286.9z"/>
		<path class="st1" d="M1680.6,193.2c50.7,0,91.8,41.1,91.8,91.8c0,50.7-41.1,91.8-91.8,91.8c-50.7,0-91.8-41.1-91.8-91.8
			C1588.8,234.3,1629.9,193.2,1680.6,193.2 M1680.6,176c-60.1,0-109.1,48.9-109.1,109.1s48.9,109.1,109.1,109.1
			s109.1-48.9,109.1-109.1S1740.7,176,1680.6,176L1680.6,176z"/>
		<path class="st8" d="M1621.9,234.4c-3.5,6-6.5,12.2-8.9,18.6c-2.3,6.3-3.9,12.9-4.3,19.2c-0.4,6.4,0.5,12.5,2.5,18.1
			c2.1,5.6,5.3,10.5,9.3,14.9c3.6,3.9,3.3,9.9-0.5,13.5c-3.9,3.6-9.9,3.3-13.5-0.5c-0.5-0.5-0.9-1-1.2-1.6l-0.2-0.3
			c-4-6.9-7-14.7-8-22.6c-1.1-7.9-0.4-15.9,1.7-23.2c2.1-7.3,5.3-13.9,9.2-20c3.9-6.1,8.3-11.6,13-16.8c0.2-0.2,0.6-0.3,0.8,0
			C1622,233.8,1622.1,234.1,1621.9,234.4L1621.9,234.4z"/>
	</g>
	<g>
		<circle class="st6" cx="1769.1" cy="358.7" r="100.5"/>
		<path class="st7" d="M1818.3,360.5c0,41.6-22.2,78.2-55.4,98.4c-52.5-3.2-94.2-47-94.2-100.3c0-51.4,38.8-93.9,88.7-99.8
			C1793.6,278.3,1818.3,316.6,1818.3,360.5z"/>
		<path class="st1" d="M1769.1,266.8c50.7,0,91.8,41.1,91.8,91.8c0,50.7-41.1,91.8-91.8,91.8c-50.7,0-91.8-41.1-91.8-91.8
			C1677.3,308,1718.4,266.8,1769.1,266.8 M1769.1,249.6c-60.1,0-109.1,48.9-109.1,109.1s48.9,109.1,109.1,109.1
			s109.1-48.9,109.1-109.1S1829.3,249.6,1769.1,249.6L1769.1,249.6z"/>
		<path class="st8" d="M1710.4,308c-3.5,6-6.5,12.2-8.9,18.6c-2.3,6.3-3.9,12.9-4.3,19.2c-0.4,6.4,0.5,12.5,2.5,18.1
			c2.1,5.6,5.3,10.5,9.3,14.9c3.6,3.9,3.3,9.9-0.5,13.5c-3.9,3.6-9.9,3.3-13.5-0.5c-0.5-0.5-0.9-1-1.2-1.6l-0.2-0.3
			c-4-6.9-7-14.7-8-22.6c-1.1-7.9-0.4-15.9,1.7-23.2c2.1-7.3,5.3-13.9,9.2-20c3.9-6.1,8.3-11.6,13-16.8c0.2-0.2,0.6-0.3,0.8,0
			C1710.5,307.5,1710.6,307.8,1710.4,308L1710.4,308z"/>
	</g>
	<g>
		<circle class="st6" cx="1607.8" cy="366.1" r="100.5"/>
		<path class="st7" d="M1657,368c0,41.6-22.2,78.2-55.4,98.4c-52.5-3.2-94.2-47-94.2-100.3c0-51.4,38.8-93.9,88.7-99.8
			C1632.3,285.8,1657,324,1657,368z"/>
		<path class="st1" d="M1607.8,274.3c50.7,0,91.8,41.1,91.8,91.8c0,50.7-41.1,91.8-91.8,91.8c-50.7,0-91.8-41.1-91.8-91.8
			C1516,315.4,1557.1,274.3,1607.8,274.3 M1607.8,257.1c-60.1,0-109.1,48.9-109.1,109.1s48.9,109.1,109.1,109.1
			s109.1-48.9,109.1-109.1S1667.9,257.1,1607.8,257.1L1607.8,257.1z"/>
		<path class="st8" d="M1549.1,315.5c-3.5,6-6.5,12.2-8.9,18.6c-2.3,6.3-3.9,12.9-4.3,19.2c-0.4,6.4,0.5,12.5,2.5,18.1
			c2.1,5.6,5.3,10.5,9.3,14.9c3.6,3.9,3.3,9.9-0.5,13.5c-3.9,3.6-9.9,3.3-13.5-0.5c-0.5-0.5-0.9-1-1.2-1.6l-0.2-0.3
			c-4-6.9-7-14.7-8-22.6c-1.1-7.9-0.4-15.9,1.7-23.2c2.1-7.3,5.3-13.9,9.2-20c3.9-6.1,8.3-11.6,13-16.8c0.2-0.2,0.6-0.3,0.8,0
			C1549.2,314.9,1549.2,315.2,1549.1,315.5L1549.1,315.5z"/>
	</g>
	<path class="st9" d="M1358.2,1084.6c-49.7,0-98.1-1.9-136.2-5.3c-66.4-5.9-81.9-14.4-91.3-21.9c-8-6.4-12.7-16.2-12.7-26.5v-34
		c-71.7-20.6-133.4-47.7-183.7-80.6c-53.2-34.9-95.8-77.8-126.5-127.4c-51.5-83.2-72.1-186.1-65-324c0.5-9.5,5-18.4,12.3-24.4
		c6.1-5,13.7-7.7,21.5-7.7c1.6,0,3.2,0.1,4.8,0.3c185,26.4,375.8,39.8,567.2,39.8c189.7,0,385.6-13.2,582.1-39.1
		c1.5-0.2,3-0.3,4.4-0.3c7.7,0,15.1,2.6,21.2,7.4c7.2,5.8,11.8,14.2,12.6,23.4c5.9,66.6,2.9,128.4-9.1,183.7
		c-12.5,57.8-35.1,110.1-67.1,155.6c-32.7,46.4-76,86.8-128.6,120c-46.6,29.4-101.8,53.9-164.3,72.9v34.4c0,13.1-7.5,25-19.3,30.6
		c-11.1,5.3-32.8,12.9-92.8,18.1C1450.8,1082.9,1406,1084.6,1358.2,1084.6z"/>
	<path class="st10" d="M1565.8,971.1v59.9c-14.9,7.1-46.5,12.1-85.9,15.4v-82h-121.5c278-76.4,393.8-236.8,361.2-473.5
		c71.7-6.1,143.5-13.9,215.5-23.4C1957.6,717.9,1848.6,893.8,1565.8,971.1z"/>
	<path class="st5" d="M1151.9,1031v-59.9C823,886.3,765,690.7,776.7,466.7c102.2,14.6,204.7,25.1,307.5,31.7
		c-112.9-1.1-238.2,2.6-249.3,23.9c-20.5,39.5-76,283.6,324.5,418c7.7,49.5-6.6,94.1,122.9,108.8
		C1217,1046.5,1163.4,1040.2,1151.9,1031z"/>
	<path class="st1" d="M776.7,466.7c189.4,27.1,380.1,40.2,572,40.2c194.4,0,389.9-13.4,586.6-39.4
		c22.4,250.5-86.6,426.4-369.4,503.7v59.9c-28.6,13.6-118.6,19.7-207.6,19.7c-95.8,0-190.6-7.1-206.3-19.7v-59.9
		C823,886.3,765,690.7,776.7,466.7 M776.7,398.9c-15.6,0-30.9,5.4-43.1,15.4c-14.7,12.1-23.6,29.8-24.6,48.8
		c-3.5,66.7-0.7,124.4,8.4,176.6c11.1,63.3,31.2,117.9,61.6,167c33.4,53.9,79.4,100.3,136.8,137.9c29.5,19.4,62.8,36.9,98.9,52
		c21.8,9.2,45.1,17.7,69.5,25.4v8.8c0,20.6,9.4,40.1,25.4,52.9c16.9,13.5,41.1,23.1,109.5,29.2c39.1,3.5,88.5,5.4,139.2,5.4
		c48.8,0,94.5-1.7,132.3-5c64.7-5.6,89.8-14.3,104.4-21.3c23.6-11.2,38.7-35.1,38.7-61.2v-9.6c55.6-18.7,105.4-41.8,148.5-69
		c56.5-35.6,103-79,138.3-129.2c34.6-49.2,59.1-105.7,72.6-167.9c12.7-58.7,16-123.9,9.8-193.9c-1.6-18.4-10.7-35.3-25.2-46.9
		c-12.1-9.7-27.1-14.9-42.4-14.9c-3,0-5.9,0.2-8.9,0.6C1731.2,426,1536.9,439,1348.6,439c-189.8,0-379-13.3-562.4-39.5
		C783,399.1,779.8,398.9,776.7,398.9L776.7,398.9z"/>
	<path class="st0" d="M2134.9,1298.3c-1.4,0-2.8-0.1-4.1-0.4c-250.8-49.7-511.4-74.9-774.5-74.9c-260.3,0-531.2,24.7-805.2,73.3
		c-1.2,0.2-2.5,0.3-3.7,0.3c-5.1,0-10-1.8-13.9-5.2c-4.8-4.2-7.5-10.3-7.4-16.7c5.4-178.2-14.4-317.4-60.4-425.4
		c-2.5-5.8-2.2-12.5,0.7-18.1c2.9-5.6,8.2-9.7,14.4-11c282.8-60.1,571.1-90.6,856.7-90.6c285.6,0,576.8,30.5,865.4,90.6
		c6,1.3,11.2,5.1,14.2,10.4s3.5,11.8,1.4,17.6C2170,983,2149,1126.9,2156.2,1276c0.3,6.5-2.4,12.8-7.3,17.1
		C2144.9,1296.5,2140,1298.3,2134.9,1298.3z"/>
	<path class="st1" d="M2235.8,820.3c-6-10.8-16.4-18.4-28.4-20.9c-144.5-30.1-290.6-53-434.4-68.1
		c-144.8-15.2-291.3-22.9-435.4-22.9c-143.1,0-287.9,7.6-430.2,22.6C764,746,619,769.1,476.4,799.4c-12.4,2.6-23,10.7-28.9,22
		c-5.9,11.3-6.4,24.6-1.4,36.3c44.7,105.1,63.9,241.3,58.7,416.4c-0.4,12.8,5,25.1,14.7,33.4c7.8,6.7,17.7,10.3,27.8,10.3
		c2.5,0,5-0.2,7.4-0.7c272.8-48.5,542.5-73,801.5-73c261.7,0,520.9,25.1,770.4,74.5c2.7,0.5,5.5,0.8,8.3,0.8
		c10.1,0,20-3.6,27.8-10.3c9.9-8.5,15.3-21.2,14.7-34.2c-7-146.2,13.6-287.4,61.2-419.5C2242.8,843.9,2241.8,831,2235.8,820.3z
		 M2133.5,1223.8c-33.8-6.8-126.1-15.9-254-25.1c90.5,15.2,192.9,29.9,254.3,46.5c0.2,10.6,0.6,21.2,1.1,31.9
		c-257.6-51.1-517.2-75.3-778.7-75.3c-267.8,0-537.5,25.5-809,73.7c0.3-8.4,0.4-16.7,0.6-24.9c167.7-33.6,356.6-58.4,576.9-69.4
		c-182.8-8.1-383.4,2.3-576.6,33.5c-0.4-143.4-18.9-270.2-62.9-373.5c284.6-60.5,568.7-90.2,852.3-90.2
		c287.5,0,574.6,30.5,861.1,90.2c-2,5.5-3.9,11-5.8,16.5c-239.4-56.2-407.4-61.5-570.9-63.6c218.1,25.9,418.3,54.7,561.5,92.3
		C2149.1,996.3,2133,1108.9,2133.5,1223.8z"/>
	<g>
		<g>
			<path class="st1" d="M794.8,1099.2c0.4,1.4-0.8,3.1-3.1,4.1c-2.8,1.2-11.8,2.8-26.9,5c-13.9,2-22.9,3-26.9,2.9
				c-3.4-0.1-5.8-2-7.2-5.4c-5.4-13.1-9.4-20.4-11.1-20.7c-10.8-1.5-26.4,3.2-39.4,5.3c-16.5,2.7-25.3,4.7-26.2,5.8
				c-1.4,1.8-2.4,7.2-2.9,16.1c-0.5,8.2-2,13-4.4,13.9c-9.8,3.7-21.9,5.1-32.8,7.1c-14.7,2.7-22.8,2.5-22.9,0.1
				c-1.8-28.2,10.3-65,16.3-96.5c7-36.7,15.1-73.5,21.7-110.3c0.6-3.8,1.7-5.8,3.3-6.1c2.7-0.5,7-1,12.9-1.4c5.8-0.5,10.2-1,13-1.4
				c2.7-0.5,6.8-1.3,12.1-2.5c5.3-1.2,9.3-2,11.9-2.4c1.9-0.3,4,1,6.1,3.8c21.4,30.7,39.9,63.7,58.7,95.8
				C763.1,1040.4,787.2,1071.8,794.8,1099.2z M670.3,985.5c-1.4,4.5-3.4,14.2-6.1,28.9c-2.8,15.6-4.1,24.8-3.7,27.3
				c0.3,1.7,3.5,2,9.4,1.3c3-0.4,8.1-1.1,15.1-2.2c6.5-1.1,10-2.4,10.4-4c0.1-0.5,0.1-1.2,0-2c-0.5-3.1-4.1-11.4-11-24.7
				C677.8,997.1,673,988.9,670.3,985.5z"/>
			<path class="st1" d="M977.7,1049.2c0.1,1.5-0.7,3.6-2.5,6.3c-16.1,22.7-41.2,35.6-68.5,38.5c-27.8,3-55.8-3.7-77.6-21.6
				c-21.4-17.6-34.1-43.2-37.7-70.5c-3.7-27.2,2.1-54.8,18.2-77.3c16.8-23.5,42.7-37.5,71.2-40.7c28.4-3.1,58.3,1.7,80.6,20.6
				c2.2,1.9,3.4,3.7,3.6,5.3c0.2,1.8-2.8,8.9-8.7,21.2c-5.9,12.3-9.7,19.3-11.4,20.9c-0.7,0.8-1.7,1.3-2.9,1.4c-0.5,0-3.2-1.6-8.1-5
				c-5.9-4-11.6-7.1-17.1-9.1c-8.4-3-16.9-4-25.5-3.1c-13.6,1.4-26.2,8.2-33.8,19.8c-7.2,11-9.4,24.6-7.9,37.4
				c1.6,13,6.9,25.7,16.4,35c9.7,9.5,23.2,13.6,36.6,12.1c8.5-1,16.5-3.6,23.8-8c4.8-2.9,9.6-6.8,14.4-11.6c4-4,6.2-6.1,6.7-6.2
				c1-0.1,2,0.3,3.1,1.3c1.7,1.6,6.7,7.1,14.6,16.7C973.5,1042.6,977.6,1048.2,977.7,1049.2z M930,1102.9
				c7.5,16.5-10.8,44.8-37,47.6c-3.4,0.4-8.4-0.7-15-3.3c-6.9-2.8-10.6-5.4-10.9-8.1c0-0.3,1.9-3.1,5.9-8.5c1.2-2.5,2.4-4.9,3.7-7.2
				c1.8-3.6,3.4-5.5,4.6-5.6c0.4,0,2,0.8,4.9,2.5c2.9,1.7,5.4,2.4,7.7,2.2c3.2-0.4,5.9-1.8,8.2-4.5c2.3-2.6,3.2-5.5,2.9-8.6
				c-0.9-8-5.5-13.9-13.9-17.5c11.4,0,17.1,0.1,28.5,0.2C921.9,1094.2,928,1098.6,930,1102.9z"/>
			<path class="st1" d="M1189.4,1064.6c0.3,1.5-1.1,3-3.5,3.7c-2.9,0.9-12,1.6-27.2,2.3c-14,0.6-23,0.7-27,0.2
				c-3.3-0.5-5.6-2.5-6.7-6.1c-4.1-13.6-7.3-21.3-9-21.7c-10.5-2.6-26.5,0.6-39.6,1.4c-16.7,1.1-25.6,2.2-26.6,3.1
				c-1.6,1.7-3.1,6.9-4.5,15.8c-1.3,8.1-3.3,12.8-5.8,13.4c-10.1,2.7-22.2,2.9-33.3,3.8c-14.9,1.2-22.8,0.2-22.7-2.2
				c1-28.3,16.6-63.6,25.6-94.4c10.6-35.9,22.2-71.6,32.4-107.6c1-3.7,2.3-5.6,3.9-5.8c2.8-0.2,7.1-0.3,12.9-0.2
				c5.8,0.1,10.2,0,13-0.1c2.8-0.2,6.8-0.6,12.2-1.3c5.4-0.7,9.4-1.1,12.1-1.2c1.9-0.1,3.8,1.4,5.7,4.4
				c18.2,32.6,33.3,67.3,48.8,101.2C1163.7,1003,1184.5,1036.5,1189.4,1064.6z M1077,939.1c-1.8,4.3-4.8,13.8-8.9,28.1
				c-4.4,15.3-6.5,24.2-6.3,26.8c0.1,1.7,3.3,2.4,9.2,2.3c3-0.1,8.2-0.3,15.2-0.7c6.6-0.4,10.2-1.4,10.8-3c0.2-0.5,0.2-1.2,0.2-2
				c-0.2-3.2-3-11.8-8.5-25.7C1083.3,951.4,1079.4,942.8,1077,939.1z"/>
			<path class="st1" d="M1261.9,959.8c0.3,17,1.1,34,1.9,51c0.8,17,1.5,34,1.9,51c0,1.9-0.4,3.1-1.3,3.6c-0.2,0.1-1.5,0.3-3.8,0.7
				c-6.3,0.9-14.8,1.5-25.5,1.8c-14.3,0.4-23.4,0.3-27.3-0.3c-2.8-0.5-4.3-1.9-4.4-4.3c0.1,1.5,0.2-6.9,0.5-25.3
				c0.3-25.5,0.9-51.2,0.1-76.6c-0.5-15.3-1.6-30.8-2.6-46.1c-1-15.4-2.1-30.7-2.6-46.1c-0.1-2.1,1.1-3.2,3.4-3.3
				c3.2-0.1,8-0.1,14.4,0c6.4,0.1,11.2,0.1,14.4,0c3.2-0.1,7.9-0.3,14.1-0.8c6.2-0.4,10.9-0.7,14.1-0.7c3-0.1,4.5,1,4.5,3.1
				c0.3,15.4-0.4,30.8-0.9,46.2C1262.3,928.9,1261.7,944.4,1261.9,959.8z M1200.4,860.1c-2,0.2-3-0.8-3-2.9c0-0.8,0-2,0.2-3.6
				c0.1-1.6,0.2-2.9,0.2-3.7c0-1.1-0.3-2.9-0.7-5.3c-0.4-2.4-0.7-4.2-0.7-5.3c0-1.3,1-2.4,3.1-3.3c10-4.4,19.6-9.8,29.1-15.1
				c9.4-6.6,18.9-13.1,28.4-19.5c0.6-0.5,1.6-1,3.1-1.5c0.7,0.2,1.6,0.6,2.7,1.4c2.4,2.3,6.3,5.4,11.6,9.6c2.9,1.5,7.2,3.9,12.9,7.2
				c1.7,1,2.5,2,2.5,2.8c0,0.8-0.7,1.8-2.1,3c-12,10.4-26.4,17.4-40.5,23.4c-14.2,6-29.4,11.4-45.2,12.8
				C1201.3,860.1,1201,860.1,1200.4,860.1z"/>
			<path class="st1" d="M1440.5,908.6c0,1.9-1.2,2.9-3.4,2.8c-15.1-0.5-30.6-1.9-45.8-3c-0.6,16.9-1.3,33.9-1.5,50.8
				c-0.2,17,0.4,34.1,0.8,51.1c0.5,17,1,34.1,0.8,51.1c0,1.8-0.5,3-1.4,3.4c-0.3,0.2-1.7,0.4-4.1,0.7c-5.8,0.7-14.5,1-25.8,1
				c-12.6-0.1-21.5-0.4-26.5-1.2c-2.7-0.4-4.1-2-4.1-4.4c0-17,0.7-34,1.3-50.9c0.7-17,1.4-34,1.4-50.9c-0.1-16.6-0.8-33.4-1.3-50.1
				c-16.2,1.5-32.4,3-48.6,3.3c-1.6,0-2.4-0.4-2.5-1.4c0-1.2,0.6-5,2-11.1c1.5-6.7,2.5-10.9,2.6-12.3c0.4-4.3,0.5-9,0.9-13.5
				c0.6-7.2,1.8-10.8,3.6-10.8c0.2,0,0.9,0,2.2,0.1c24.5,2.6,49.4,2.7,73.8,2.8c17,0,34.1-1.2,51.2-2.1c13.4-0.7,20.1-1,20.2-1
				c2.1,0,3.2,0.2,3.5,0.4c0.3,0.2,0.5,1.2,0.6,2.8c0,2.5-0.3,6.2-0.6,10.8c-0.3,5.1-0.5,8.7-0.6,10.8c-0.1,2.4,0.2,5.9,0.7,10.6
				C1440.3,902.9,1440.5,906.3,1440.5,908.6z"/>
			<path class="st1" d="M1605.4,1029.1c-0.3,4.1-1.6,11.6-4,22.5c-2.6,11.8-4.5,18.9-6.1,21.1c-1.2,1.7-3,2.6-5,2.4
				c-0.9-0.1-2.3-0.3-4.4-0.7c-20.5-3.3-41.7-3.8-62.3-4.8c-11.2-0.5-22.4-1-33.6-1.5c-11.1-0.5-22.3-0.9-33.4-1.2
				c-3.2-0.1-4.8-1.5-4.7-4.3c0.5-16.1,1.8-32.3,3.2-48.3c1.4-16.1,2.8-32.3,3.2-48.3c0.6-20.3,0.1-40.8-0.1-61.2
				c-0.1-11.5-0.4-22.9-0.7-34.4c0-0.8-0.1-1.2-0.1-2c-0.1-2.2,1.2-3.3,3.9-3.2c11.4,0.3,22.9,1,34.2,1.7c11.4,0.7,22.8,1.5,34.2,2
				c11.3,0.5,22.6,0.7,33.9,1.1c11.3,0.3,22.6,0.7,33.9,1.3c5.3,0.3,8.3,2.4,8.9,6.2c0.4,2.2,0.7,9,1.1,20.2
				c0.4,11.2,0.5,18,0.3,20.4c-0.1,2-1.2,2.9-3.2,2.8c-0.6,0-1.7-0.2-3.2-0.3c-24.1-3.2-48.3-6-72.6-7.1c-5.4-0.2-8.7,0.8-10,3.2
				c-0.6,1.1-1,4.8-1.2,11c-0.3,6.5,0.6,10.9,2.5,13.1c1.6,1.9,4.9,2.9,9.7,3.2c1,0,3,0.1,5.9,0.1c2.9,0,5.4,0,7.3,0.1
				c12.8,0.6,25.7,0.9,38.6,1c1.1,0,4-0.1,8.4-0.2c3.4-0.1,6.2-0.2,8.2-0.1c2.4,0.1,3.6,1.3,3.4,3.5c0.1-2-1.3,5.3-4.1,21.8
				c-1.3,7.6-2.2,15.2-2.6,22.9c-0.1,1.9-1.6,2.8-4.5,2.6c-5.3-0.9-8-1.3-13.4-2.2c-12.8-1.8-25.9-2.2-38.8-2.9
				c-6.3-0.3-9.5-0.5-15.8-0.7c-4.1-0.2-6.5,0.7-7.3,2.6c-0.1,0.5-0.3,3.4-0.5,8.9c-0.3,7.3,0,12,0.9,14.1c1.5,3.7,7.8,6.1,18.7,7.3
				c-0.2,0,7,0.3,21.6,1.1c5.2,0.3,13,0.2,23.4-0.1c10.4-0.3,18.1-0.3,23.3,0.1C1604.7,1023.9,1605.6,1025.6,1605.4,1029.1z"/>
			<path class="st1" d="M1796.4,1089.6c0,0.6-1.1,1-3.1,1.1c-3.7,0.1-13.1-0.6-28-2.2c-12.8-1.4-21.4-2.5-25.9-3.5
				c-2.1-0.5-3.3-0.9-3.6-1.1c-0.6-0.3-1.1-1.4-1.8-3.1c-1.1-3.9-2.7-9.7-4.8-17.2c-4.2-14.7-9.2-29.3-14-43.9
				c-1.4-3.9-5.4-6.3-11.8-7.3c3,0.5-2.2,0.1-15.3-1c-1.5-0.1-2.4,2.2-2.9,7.1c-0.5,6.5-0.7,16.3-0.6,29.3c0.1,13-0.1,22.8-0.6,29.2
				c-0.1,1.6-0.8,2.7-1.6,2.8c-1.2,0.1-2.7,0-4.1-0.1c-5.8-0.1-14.8-0.7-27-1.6c-13.9-1.1-22.3-2-25.1-2.7c-2.8-0.8-4.1-2.4-3.9-4.7
				c1.1-15.9,3.1-31.7,4.9-47.5c1.8-15.9,3.8-31.8,4.9-47.7c2.2-31.5,4.2-63.2,3.8-94.9c0-0.8,0-1.2,0-2c0-1.6,1.8-2.7,5.1-3
				c15.1-1,31.5,0.9,47.1,1.9c15.1,0.9,30.6,1.7,45.4,3.4c19.3,2.2,40,7.1,55.5,20.5c14.5,12.5,22.6,31.5,19.5,50.6
				c-1.8,11.2-3.7,22.8-10.1,32.6c-5.8,8.9-16.5,17-25.8,21.6c-2.4,1.3-3.7,2.6-3.9,3.9c4.9,12.6,9.5,25.2,14.2,37.8
				C1788,1061.5,1795.9,1077.3,1796.4,1089.6z M1747.7,954.7c1-11.5-2.1-20.1-9.8-25.4c-5.9-4-15.6-6.7-29-7.9
				c-9.6-0.9-14.9,0.1-15.7,2.8c-0.9,3.1-2,12.5-3.3,28c-0.2,2.2-0.4,5.5-0.7,9.8c-0.3,4.3-0.5,7.5-0.7,9.6c0,0.5,1.5,1.1,4.7,1.8
				c6,1.4,12.6,2.2,19.1,3C1727.7,978.3,1746.2,972.7,1747.7,954.7z"/>
			<path class="st1" d="M1886,995.1c-2.3,16.8-4,33.8-5.9,50.7c-1.8,16.9-3.7,33.9-5.9,50.7c-0.3,1.9-0.8,3-1.8,3.4
				c-0.2,0.1-1.5,0.1-3.9,0.1c-6.4-0.1-14.9-0.8-25.5-2.1c-14.2-1.8-23.2-3.2-27-4.5c-2.7-0.9-4-2.5-3.7-4.9
				c-0.2,1.5,1.3-6.8,4.3-25c4.2-25.1,8.6-50.4,11.7-75.7c1.8-15.2,3.1-30.6,4.4-46c1.3-15.3,2.6-30.7,4.4-46c0.2-2.1,1.5-3,3.9-2.7
				c3.2,0.4,7.9,1.1,14.3,2.2c6.3,1.1,11.1,1.8,14.3,2.2c3.2,0.4,7.8,0.8,14.1,1.4c6.2,0.5,10.9,1,14.1,1.4c3,0.4,4.3,1.6,4,3.7
				c-2.1,15.2-5,30.4-7.9,45.5C1890.9,964.7,1888,979.8,1886,995.1z"/>
			<path class="st1" d="M2093.7,1132.7c-0.1,1.5-1.8,2.7-4.3,2.8c-3,0.2-12.1-1.1-27.1-3.9c-13.8-2.5-22.7-4.4-26.5-5.9
				c-3.2-1.2-4.9-3.7-5.1-7.5c-0.9-14.2-2.4-22.4-3.9-23.2c-9.7-4.9-26-5.4-39-7.5c-16.5-2.7-25.5-3.6-26.7-2.9
				c-1.9,1.3-4.5,6-7.9,14.4c-3.1,7.6-6.1,11.7-8.7,11.8c-10.4,0.3-22.3-2.2-33.3-3.8c-14.8-2.2-22.3-4.9-21.7-7.3
				c7.3-27.3,30.5-58.3,46.2-86.3c18.4-32.6,37.7-64.8,55.8-97.6c1.8-3.4,3.5-5,5.1-4.7c2.7,0.4,7,1.3,12.6,2.7
				c5.7,1.4,9.9,2.3,12.8,2.8c2.7,0.4,6.8,0.9,12.2,1.5c5.4,0.6,9.4,1.1,12.1,1.5c1.9,0.3,3.4,2.2,4.5,5.6
				c10.4,35.9,17.5,73.1,25,109.6C2082.5,1066.9,2095.3,1104.3,2093.7,1132.7z M2012.1,985.2c-2.8,3.8-7.8,12.3-15,25.4
				c-7.7,13.9-11.8,22.1-12.2,24.7c-0.3,1.7,2.6,3.1,8.4,4.3c3,0.6,8,1.6,15.1,2.8c6.5,1.1,10.2,0.9,11.2-0.5
				c0.3-0.4,0.5-1.1,0.6-1.9c0.5-3.1-0.3-12.1-2.5-27C2015.5,998.6,2013.6,989.3,2012.1,985.2z"/>
		</g>
	</g>
	<g>
		<g>
			<path class="st0" d="M988,1344.1c14.8,8.9,29.8,17.3,45,25.3c8.3,4.3,14.8,9.5,19.7,15.9c4.8,6.4,7.8,13.5,8.8,21.4
				c1,7.9-0.1,15.8-3.5,23.7c-3.5,8.2-8.4,14.5-14.7,19c-6.3,4.4-14,6.8-23,6.9c-9,0.1-17.8-2-26.2-6.3
				c-17.9-9.3-35.5-19.2-52.8-29.6c1.2-1.9,1.8-2.9,2.9-4.8c3.1,1.9,4.6,2.8,7.7,4.7c1.9,1.1,3.6,1.5,5,1.3c1.5-0.3,2.6-1.2,3.5-2.7
				c11.3-19.4,22.7-38.7,34-58.1c0.9-1.6,1.1-3,0.6-4.2c-0.5-1.2-1.8-2.5-3.9-3.8c-2.5-1.5-3.7-2.2-6.1-3.7
				C986.3,1347,986.9,1346,988,1344.1z M990.4,1441.7c5.9,3.1,11.8,4.5,17.5,4.2c5.8-0.2,10.7-2.1,14.8-5.5
				c4.1-3.4,8.2-9.7,12.5-18.9c4.5-9.6,6.9-17.6,7.1-23.7c0.2-6.2-1-11.2-3.6-15.2c-2.6-4-7.5-7.8-14.6-11.5c-3.9-2-6.5-3.1-7.8-3
				c-1.3,0.1-2.4,0.9-3.3,2.5c-10.8,19.8-21.6,39.6-32.4,59.4c-1,1.8-1.2,3.3-0.8,4.5c0.4,1.3,1.6,2.4,3.6,3.4
				C986.2,1439.5,987.6,1440.2,990.4,1441.7z"/>
			<path class="st0" d="M1085.8,1393.8c25.5,10.2,51.2,19,77.5,26.5c-2.6,12.2-3.9,18.4-6.5,30.6c-2.2-0.6-3.4-0.9-5.6-1.6
				c0.7-7.5,0.5-13-0.5-16.7c-1-3.7-2.9-6.7-5.5-9.2c-2.6-2.5-6.4-4.5-11.4-6.1c-4.9-1.6-7.4-2.4-12.3-4.1c-1.9-0.7-3.4-0.8-4.5-0.4
				c-1.1,0.4-1.9,1.2-2.3,2.5c-4.1,11.7-6.2,17.5-10.3,29.2c1.8,0.6,2.6,0.9,4.4,1.5c5.1,1.7,9.4,1.8,13.1,0.1c3.6-1.7,6.6-5.4,9-11
				c2.3,0.7,3.4,1.1,5.6,1.8c-4.1,13.2-8.2,26.5-12.3,39.7c-2.4-0.7-3.6-1.1-6-1.9c1.7-6.7,1.5-11.8-0.5-15.5
				c-2-3.6-5.8-6.4-11.5-8.3c-1.5-0.5-2.2-0.8-3.7-1.3c-3.7,10.4-7.3,20.8-11,31.2c-0.5,1.4-0.4,2.5,0.4,3.4
				c1.1,1.3,3.1,2.5,5.8,3.4c4.8,1.6,7.2,2.4,12.1,4c8.3,2.7,15.8,2.5,22.4-0.5c6.6-3,11.7-9,15.5-17.8c2.4,0.7,3.6,1,5.9,1.6
				c-3.4,10.8-6.9,21.6-10.4,32.5c-31.1-8.7-61.5-19-91.5-31c0.9-2.1,1.3-3.1,2.1-5.2c3.5,1.5,5.3,2.2,8.9,3.6c2,0.8,3.7,1,5.1,0.5
				c1.4-0.5,2.4-1.4,2.9-2.9c8.3-21.4,16.5-42.8,24.8-64.2c0.5-1.4,0.4-2.5-0.3-3.5c-0.7-1-2.3-2-4.7-2.9c-2.8-1.1-4.2-1.7-7-2.8
				C1084.5,1396.9,1085,1395.8,1085.8,1393.8z"/>
			<path class="st0" d="M1179.1,1430.2c0.5-2.2,0.8-3.3,1.4-5.5c15.6,3.7,31.1,7.2,46.9,9.9c-0.4,2.2-0.6,3.3-1,5.5
				c-3.2-0.6-4.8-0.9-8-1.5c-2.3-0.4-4-0.3-5.1,0.3c-1.1,0.7-1.8,1.9-2.2,3.8c-4.3,21.7-8.6,43.5-12.9,65.2
				c-0.5,2.6-0.4,4.4,0.5,5.4c0.8,0.9,3.1,1.7,6.7,2.4c5.9,1.1,8.9,1.6,14.9,2.6c5.5,0.9,11.1-0.5,16.5-4.4
				c5.4-3.8,10-10.5,13.8-20.1c2.4,0.3,3.6,0.5,6.1,0.8c-2.1,11.3-4.3,22.5-6.5,33.7c-30.8-4.1-61-9.7-91.2-16.9
				c0.5-2.2,0.8-3.3,1.4-5.5c3.6,0.9,5.4,1.3,9,2.2c2,0.5,3.6,0.4,4.8-0.3c1.2-0.6,2-1.7,2.3-3.3c5.1-22.2,10.1-44.4,15.2-66.7
				c0.4-1.6,0.2-2.9-0.6-3.8c-0.8-0.9-2.3-1.7-4.6-2.2C1183.5,1431.3,1182,1431,1179.1,1430.2z"/>
			<path class="st0" d="M1271.7,1441c15.8,1.7,31.7,2.9,47.5,3.5c-0.1,2.2-0.1,3.4-0.2,5.6c-3.5-0.1-5.2-0.2-8.7-0.4
				c-1.9-0.1-3.2,0.2-4.1,0.8c-0.9,0.7-1.4,1.7-1.5,3c-1.4,23-2.7,46.1-4.1,69.1c-0.1,1.6,0.3,2.8,1.3,3.5c1.2,1,3,1.5,5.4,1.6
				c3.4,0.2,5.2,0.2,8.6,0.4c-0.1,2.2-0.1,3.4-0.2,5.6c-18-0.7-35.9-2-53.7-3.9c0.2-2.2,0.4-3.4,0.6-5.6c3.3,0.4,4.9,0.5,8.1,0.8
				c2.8,0.3,4.8,0.1,6-0.6c1.2-0.7,1.9-1.8,2-3.4c2-22.7,4-45.4,6-68.2c0.1-1.7-0.2-3-1.1-3.9c-0.9-0.9-2.3-1.4-4.3-1.6
				c-3.3-0.3-5-0.5-8.3-0.9C1271.3,1444.3,1271.4,1443.2,1271.7,1441z"/>
			<path class="st0" d="M1322.5,1444.6c15.2,0.5,30.3,0.5,45.5,0c0.1,2.2,0.1,3.4,0.2,5.6c-2,0.1-3,0.1-5,0.1
				c-3.4,0.1-5.7,0.4-6.8,1.1c-1.1,0.7-1.7,1.5-1.6,2.6c0,1,0.5,2.6,1.5,4.8c8.4,18,17.2,35.8,26.5,53.3
				c6.1-15.7,11.9-31.5,17.4-47.4c1.1-3.2,1.5-6.1,1.3-8.8c-0.2-2.5-1.1-4.3-2.8-5.5c-1.7-1.2-4.1-1.6-7.2-1.4
				c-1.7,0.1-2.5,0.2-4.2,0.3c-0.1-2.2-0.2-3.4-0.3-5.6c12-0.7,24-1.7,35.8-3.1c0.3,2.2,0.4,3.4,0.6,5.6c-1.1,0.1-1.6,0.2-2.7,0.3
				c-2.3,0.3-4.3,1.2-6,2.9c-1.7,1.7-3.2,4.6-4.5,8.7c-8.7,26.2-18.3,51.9-28.9,77.3c-3.4,0.2-5.1,0.2-8.5,0.3
				c-13.5-25.8-25.9-51.9-37.4-78.6c-1.1-2.7-2.4-4.5-3.9-5.4c-1.5-0.9-3.8-1.4-7.1-1.5c-0.8,0-1.2,0-2-0.1
				C1322.3,1448,1322.4,1446.8,1322.5,1444.6z"/>
			<path class="st0" d="M1426,1440.3c27-3.4,53.4-8.2,79.9-14.3c3.6,12,5.5,18,9.2,29.9c-2.3,0.6-3.4,0.8-5.7,1.4
				c-3-6.9-5.9-11.7-8.5-14.4c-2.7-2.7-5.7-4.5-9.2-5.4c-3.5-0.9-7.7-0.8-12.8,0.2c-5,1-7.6,1.5-12.6,2.4c-2,0.3-3.3,1-4.1,1.8
				c-0.8,0.9-1,2-0.8,3.3c2.1,12.2,3.1,18.3,5.2,30.6c1.8-0.3,2.7-0.5,4.5-0.8c5.2-0.9,9-3,11.4-6.3c2.3-3.2,3.1-7.9,2.5-14
				c2.3-0.5,3.5-0.7,5.8-1.2c2.8,13.6,5.7,27.1,8.5,40.7c-2.4,0.5-3.7,0.8-6.1,1.2c-1.8-6.7-4.4-11.1-7.9-13.3
				c-3.5-2.2-8.1-2.8-14-1.7c-1.5,0.3-2.3,0.4-3.8,0.6c1.8,10.9,3.7,21.7,5.5,32.6c0.2,1.4,0.9,2.4,2,2.8c1.6,0.6,3.9,0.7,6.6,0.2
				c5-0.9,7.4-1.4,12.4-2.3c8.5-1.7,14.9-5.5,19.2-11.3c4.3-5.8,5.9-13.5,4.9-23c2.4-0.6,3.6-0.9,6-1.5c2.3,11.1,4.5,22.3,6.7,33.4
				c-31.2,7.4-62.4,13.1-94.2,17.1c-0.3-2.2-0.4-3.3-0.7-5.6c3.7-0.4,5.6-0.7,9.3-1.2c2.1-0.3,3.6-0.9,4.6-2c1-1.1,1.3-2.4,1.1-3.9
				c-3.2-22.7-6.3-45.4-9.5-68.1c-0.2-1.4-0.8-2.4-1.9-3c-1.1-0.5-2.9-0.6-5.5-0.3c-2.9,0.4-4.4,0.6-7.4,0.9
				C1426.4,1443.6,1426.2,1442.5,1426,1440.3z"/>
			<path class="st0" d="M1525.3,1421c15.8-4.4,31.3-9.3,46.8-14.6c7.5-2.6,14-4,19.4-4c5.4,0,9.9,1.1,13.5,3.3
				c3.6,2.2,6.2,5.2,7.7,9c2.5,6.1,1.5,12.2-3.1,18.4c-3.5,4.7-10,9.4-19.5,13.8c5.2-1,9.4-1.3,12.7-0.7c3.2,0.6,6.5,2,9.7,4.3
				c4.3,3,8.5,7,12.4,11.9c2.5,3.2,4.4,5.1,5.6,5.7c1.2,0.6,2.4,0.7,3.4,0.2c2.9-1.2,3.3-5.2,1.2-11.9c2.3-1,3.4-1.4,5.7-2.4
				c2.5,7.1,2.8,12.8,0.8,17.1c-2,4.3-6,7.7-11.9,10.1c-4.3,1.7-8,2.3-11.1,1.8c-3.1-0.5-5.9-1.9-8.3-4.3c-1.4-1.3-3.9-4.7-7.5-10.3
				c-4.2-6.4-7.3-10.7-9.5-12.7c-2.1-2-4.4-3.2-6.8-3.7c-2.4-0.5-5.1-0.2-8.1,0.8c-2.8,0.9-4.2,1.4-7,2.3
				c3.4,10.4,6.8,20.9,10.2,31.3c0.4,1.4,1.3,2.3,2.5,2.7c1.6,0.5,3.4,0.5,5.2-0.1c3.6-1.2,5.4-1.8,9.1-3.1c0.7,2.1,1.1,3.2,1.8,5.3
				c-16.9,5.9-34.1,11.2-51.4,15.9c-0.6-2.2-0.9-3.3-1.5-5.4c3.2-0.9,4.8-1.3,8-2.2c2.1-0.6,3.5-1.5,4.3-2.7
				c0.8-1.2,0.9-2.6,0.5-4.3c-6.3-21.6-12.6-43.1-18.9-64.7c-0.5-1.8-1.3-3-2.4-3.5c-1.1-0.6-2.5-0.6-4-0.2
				c-3.1,0.9-4.7,1.3-7.8,2.2C1526.1,1424.3,1525.9,1423.2,1525.3,1421z M1569.7,1450.1c3.2-1,4.8-1.6,8-2.6
				c7.1-2.4,12.1-6,14.9-10.7c2.1-3.5,2.1-8.3-0.1-14.1c-2-5.4-4.9-8.7-8.7-10.2c-3.8-1.4-9.2-0.9-16.3,1.5
				c-3.8,1.3-6.1,2.5-6.8,3.6c-0.7,1.1-0.6,3,0.2,5.7C1564.4,1434,1566.2,1439.4,1569.7,1450.1z"/>
			<path class="st0" d="M1617.6,1388.6c14.5-6.3,28.8-13.1,42.8-20.3c1,2,1.6,3,2.6,5c-2.4,1.2-3.5,1.8-5.9,3c-2.1,1.1-3.4,2-4,2.9
				c-0.6,0.9-0.7,1.7-0.3,2.5c0.4,0.9,1.3,1.8,2.6,2.6c11,6.5,21.9,12.8,33.1,19c0.4-12,0.4-18,0.4-29.9c0-2.5-0.5-4.5-1.3-6
				c-1-1.8-2.4-2.8-4.4-3c-1.9-0.3-4.2,0.3-6.9,1.8c-1,0.6-1.6,0.8-2.6,1.4c-1.1-2-1.6-3-2.7-4.9c10.9-6,21.6-12.2,32.2-18.6
				c1.2,1.9,1.8,2.9,2.9,4.8c-3.7,2.3-6.2,4.8-7.7,7.4c-1.5,2.6-2.2,5.9-2.1,9.7c0.2,13.6,0.1,27.2-0.3,40.8
				c5.4,9.9,8,14.8,13.4,24.7c0.8,1.5,1.9,2.3,3.2,2.5c1.3,0.2,3-0.3,5.1-1.4c3.9-2.2,5.8-3.3,9.7-5.5c1.1,2,1.7,2.9,2.8,4.9
				c-17.2,9.7-34.7,18.8-52.4,27.4c-1-2-1.4-3-2.4-5.1c4-1.9,5.9-2.8,9.9-4.8c2.2-1.1,3.6-2.3,4.2-3.4c0.6-1.2,0.4-2.5-0.3-4
				c-4.5-8.9-6.7-13.4-11.2-22.3c-14.3-8.2-28.3-16.8-42.1-25.7c-2.6-1.7-5-2.7-7-2.8c-2.1-0.1-4.4,0.4-6.9,1.5
				c-0.8,0.3-1.1,0.5-1.9,0.8C1619,1391.7,1618.5,1390.7,1617.6,1388.6z"/>
		</g>
	</g>
</g>
</svg>
